<?xml version="1.0" standalone="no"?>
<!DOCTYPE svg PUBLIC "-//W3C//DTD SVG 20010904//EN"
 "http://www.w3.org/TR/2001/REC-SVG-20010904/DTD/svg10.dtd">
<svg version="1.0" xmlns="http://www.w3.org/2000/svg"
 width="400.000000pt" height="400.000000pt" viewBox="0 0 400.000000 400.000000"
 preserveAspectRatio="xMidYMid meet">
<metadata>
Created by potrace 1.14, written by Peter Selinger 2001-2017
</metadata>
<g transform="translate(0.000000,400.000000) scale(0.100000,-0.100000)"
fill="#000000" stroke="none">
<path d="M1885 3978 c4 -20 3 -21 -8 -7 -8 11 -27 15 -62 14 -27 -1 -50 -3
-50 -5 0 -1 -16 -3 -35 -5 -52 -4 -52 -4 -45 -15 3 -5 1 -10 -4 -10 -6 0 -11
6 -11 13 0 8 -4 7 -10 -3 -7 -11 -10 -11 -10 -2 0 9 -5 10 -17 4 -10 -5 -26
-8 -35 -7 -10 2 -17 0 -17 -3 3 -18 -2 -26 -9 -16 -10 17 -72 6 -65 -12 4 -11
10 -10 31 2 26 16 26 15 7 -1 -15 -13 -16 -16 -3 -12 9 3 19 3 22 -1 4 -3 16
-7 29 -9 21 -4 21 -3 2 12 -14 10 -15 14 -5 13 9 -2 14 3 12 11 -3 12 0 12 12
1 11 -8 16 -9 16 -1 0 6 4 11 9 11 5 0 8 -11 7 -25 -2 -13 1 -22 6 -19 5 3 7
13 6 21 -2 10 5 17 17 18 33 4 50 9 57 20 5 6 8 5 8 -4 0 -11 3 -11 16 -1 8 8
14 9 12 4 -2 -5 1 -10 6 -11 5 -1 12 -7 16 -13 5 -9 9 -9 14 -1 4 6 2 11 -5
11 -7 0 -4 6 6 14 14 10 25 11 37 5 10 -5 18 -6 18 -2 0 4 5 2 12 -5 18 -18
31 -15 24 6 -6 16 -5 16 8 0 14 -19 32 -25 21 -8 -8 13 18 8 27 -5 5 -6 8 -4
8 4 0 11 4 9 15 -5 13 -16 14 -16 9 -1 -4 10 -1 17 7 18 70 6 87 4 83 -6 -3
-6 2 -12 10 -12 8 0 12 6 9 14 -3 7 0 13 7 13 6 0 9 -4 5 -9 -3 -6 4 -15 16
-21 17 -10 20 -9 14 1 -6 8 -4 10 5 4 8 -5 11 -4 6 3 -3 6 -1 14 5 18 7 4 9 3
5 -4 -3 -6 -1 -14 5 -18 7 -4 9 -3 6 3 -3 5 0 10 8 10 8 0 15 -5 15 -11 0 -6
5 -4 10 4 7 11 10 11 10 2 0 -7 4 -11 8 -8 4 2 14 1 22 -4 9 -5 20 -4 28 3 11
9 17 7 28 -8 14 -19 49 -32 38 -14 -3 5 -10 7 -15 4 -5 -4 -9 -1 -9 5 0 7 7 9
16 6 10 -4 13 -2 8 7 -5 7 0 5 11 -3 10 -8 21 -14 24 -13 3 1 5 -6 3 -15 -2
-15 -1 -15 12 1 9 12 16 14 21 8 3 -6 0 -11 -7 -11 -9 0 -9 -3 2 -10 8 -5 20
-10 25 -10 6 0 4 4 -3 9 -10 6 -9 11 4 22 14 11 18 11 30 -6 10 -14 14 -15 14
-4 1 11 3 10 10 -3 6 -10 19 -15 30 -13 24 5 25 -1 5 -21 -8 -9 -15 -11 -15
-6 0 6 -8 9 -17 7 -10 -1 -22 0 -28 4 -9 5 -22 7 -81 13 -15 1 -20 7 -16 18 5
12 3 13 -9 3 -11 -9 -84 -12 -84 -3 0 1 -18 3 -40 4 -27 1 -39 6 -37 15 1 7
-3 11 -10 8 -7 -2 -12 -9 -11 -14 3 -15 -47 -9 -57 7 -8 13 -13 8 -12 -10 0
-3 -37 -5 -83 -5 -72 0 -82 2 -72 14 10 12 9 14 -6 8 -10 -4 -21 -7 -23 -7 -3
0 -2 -4 1 -10 4 -6 -1 -7 -11 -3 -13 5 -15 3 -9 -7 5 -9 4 -11 -4 -6 -6 4 -9
13 -5 19 3 7 0 5 -8 -4 -14 -17 -48 -22 -48 -6 0 5 8 6 18 2 14 -5 15 -4 4 7
-11 11 -16 10 -28 -6 -14 -19 -91 -35 -79 -16 3 5 1 11 -5 15 -5 3 -10 1 -10
-5 0 -7 -7 -10 -17 -6 -17 6 -17 5 0 -8 15 -12 15 -14 3 -19 -9 -4 -18 -2 -21
3 -4 6 -11 10 -16 10 -6 0 -8 -4 -4 -9 3 -6 -4 -8 -17 -6 -13 3 -24 9 -26 15
-2 6 -8 8 -12 5 -5 -3 -7 -12 -4 -19 3 -7 -2 -16 -12 -20 -14 -5 -15 -4 -4 9
8 10 9 15 1 15 -6 0 -16 -9 -23 -19 -11 -18 -13 -18 -25 -3 -11 15 -12 15 -7
1 7 -21 -25 -34 -32 -14 -7 17 -25 10 -20 -8 1 -7 1 -9 -1 -4 -8 13 -23 7 -23
-9 0 -11 -6 -14 -21 -9 -14 5 -19 3 -15 -3 4 -7 -3 -9 -20 -6 -18 3 -23 1 -18
-7 4 -8 3 -9 -4 -5 -7 4 -12 1 -12 -6 0 -8 -3 -9 -8 -3 -12 16 -35 17 -29 1 7
-18 -27 -28 -44 -12 -9 8 -10 7 -6 -7 4 -10 3 -16 -2 -13 -5 3 -14 -1 -21 -9
-6 -7 -18 -11 -26 -8 -7 3 -17 -2 -20 -12 -4 -9 -13 -14 -20 -11 -8 3 -14 1
-14 -4 0 -6 -5 -10 -10 -10 -6 0 -9 5 -8 11 2 6 -4 14 -12 16 -9 3 -11 1 -5
-4 12 -9 13 -28 2 -39 -4 -4 -7 3 -7 15 0 13 -4 19 -10 16 -6 -4 -9 -14 -8
-23 2 -12 -3 -16 -16 -14 -11 2 -15 -1 -11 -7 5 -10 -58 -56 -77 -56 -4 0 -18
-9 -30 -20 -13 -10 -25 -18 -27 -16 -2 1 -8 -3 -12 -11 -7 -10 -9 -10 -9 0 0
7 -5 10 -10 7 -6 -4 -8 -11 -5 -16 3 -5 -1 -6 -10 -3 -9 4 -15 3 -14 -2 1 -5
1 -16 0 -24 -1 -11 -3 -12 -9 -3 -5 8 -13 9 -22 3 -12 -8 -12 -10 -1 -10 7 0
1 -10 -15 -22 -16 -13 -31 -26 -33 -31 -1 -4 -9 0 -17 10 -12 17 -13 17 -9 -4
2 -13 -5 -28 -17 -40 -12 -10 -18 -12 -14 -5 4 6 2 12 -3 12 -6 0 -11 -8 -12
-17 0 -15 -2 -15 -9 2 -5 11 -9 18 -10 15 -8 -26 -6 -40 3 -40 7 0 3 -6 -8
-12 -11 -6 -28 -21 -38 -32 -11 -12 -26 -20 -34 -18 -8 2 -12 -1 -9 -6 9 -14
-31 -55 -45 -46 -8 5 -9 3 -4 -6 4 -7 2 -16 -6 -21 -8 -4 -14 -14 -14 -21 0
-7 -9 -12 -19 -10 -11 2 -15 -1 -11 -7 4 -7 -1 -8 -12 -4 -15 6 -16 4 -5 -9
11 -14 10 -18 -7 -30 -12 -8 -18 -19 -13 -24 4 -4 -1 -2 -11 5 -16 13 -18 12
-13 -12 2 -15 0 -29 -5 -33 -6 -3 -24 -25 -40 -47 -17 -23 -35 -43 -40 -43
-22 -3 -23 -5 -9 -14 10 -6 11 -10 3 -10 -7 0 -13 -7 -13 -15 0 -8 -6 -14 -12
-13 -7 2 -12 -3 -10 -10 1 -8 -1 -11 -6 -8 -4 2 -13 -4 -20 -15 -14 -21 -3
-25 18 -6 12 10 12 9 0 -8 -8 -11 -23 -30 -34 -42 -11 -13 -16 -23 -13 -23 4
0 0 -11 -9 -25 -9 -14 -20 -22 -25 -19 -5 3 -9 0 -9 -5 0 -6 6 -11 13 -11 8 0
7 -4 -3 -10 -8 -5 -11 -10 -6 -10 5 0 1 -9 -9 -20 -10 -11 -14 -20 -9 -20 5 0
2 -6 -6 -13 -9 -7 -15 -19 -15 -27 1 -8 -5 -23 -13 -32 -8 -10 -12 -18 -7 -18
4 0 2 -7 -5 -15 -7 -8 -10 -15 -6 -15 4 0 -1 -11 -10 -25 -9 -14 -13 -25 -9
-25 4 0 2 -6 -4 -13 -6 -8 -7 -17 -3 -21 4 -4 3 -7 -3 -5 -17 4 -45 -13 -39
-23 4 -6 10 -5 15 3 4 7 11 10 16 6 4 -5 3 -11 -3 -15 -5 -4 -9 -14 -9 -22 1
-8 -3 -21 -8 -27 -5 -7 -6 -13 -2 -13 4 0 2 -7 -5 -15 -6 -8 -9 -18 -6 -24 4
-5 0 -15 -7 -23 -8 -7 -12 -27 -10 -47 3 -20 0 -31 -6 -27 -5 4 -12 2 -16 -4
-3 -5 -1 -10 4 -10 11 0 10 -27 -1 -46 -4 -6 -5 -23 -2 -37 2 -15 1 -27 -4
-27 -5 0 -8 -21 -7 -46 0 -25 -2 -47 -6 -50 -5 -2 -6 -20 -5 -38 3 -23 0 -33
-8 -30 -6 2 -12 -5 -13 -17 -1 -15 1 -18 11 -10 9 8 12 4 12 -14 0 -13 -4 -21
-8 -19 -4 3 -8 1 -8 -5 0 -5 4 -12 8 -15 12 -7 9 -50 -4 -67 -24 -31 -28 -44
-7 -26 19 17 20 17 19 -7 -1 -14 -5 -28 -9 -32 -10 -10 -9 -26 2 -20 5 3 7 -8
6 -24 -1 -17 2 -30 9 -30 6 0 4 -5 -4 -10 -11 -7 -12 -10 -2 -10 10 0 10 -4
-2 -16 -9 -8 -16 -20 -16 -27 0 -6 6 -3 13 7 12 16 14 16 14 2 0 -9 -4 -16 -9
-16 -5 0 -6 -5 -3 -10 4 -6 10 -8 14 -6 4 3 7 -5 6 -17 -1 -12 0 -26 3 -32 11
-18 10 -50 -2 -64 -9 -12 -8 -14 6 -9 11 5 15 2 13 -10 -1 -9 2 -23 8 -29 5
-7 6 -13 2 -13 -4 0 -3 -6 2 -12 5 -7 9 -24 8 -38 0 -14 3 -27 7 -30 4 -3 10
-17 12 -30 2 -14 6 -27 7 -30 3 -8 7 -23 8 -38 0 -7 5 -11 9 -8 4 2 9 -4 9
-15 1 -10 -3 -19 -9 -19 -6 0 -8 -3 -4 -7 4 -5 13 -8 19 -8 7 0 13 -6 13 -12
1 -7 3 -15 4 -18 1 -3 3 -8 5 -12 1 -5 8 -21 15 -38 7 -16 14 -36 14 -43 1 -7
6 -16 11 -20 6 -4 16 -17 23 -30 12 -21 11 -22 -7 -10 -11 7 -17 16 -14 22 4
5 1 6 -7 1 -9 -6 -11 -4 -5 5 5 8 4 11 -2 7 -5 -3 -10 0 -11 8 -1 8 -3 22 -4
30 -1 8 -5 12 -9 9 -4 -2 -6 5 -4 16 3 13 0 18 -7 14 -7 -5 -8 -2 -3 6 6 9 4
11 -5 5 -9 -6 -11 -4 -5 5 6 9 4 11 -6 5 -12 -7 -12 -6 -1 7 8 10 9 19 4 22
-15 9 -24 -25 -11 -40 6 -8 8 -14 4 -14 -5 0 -1 -8 8 -18 10 -10 14 -22 11
-25 -4 -4 1 -9 10 -13 9 -3 14 -10 11 -14 -3 -5 1 -14 8 -22 14 -14 16 -17 24
-47 3 -12 11 -17 19 -14 12 4 11 8 -3 20 -16 13 -16 13 5 3 12 -6 20 -15 17
-20 -3 -4 -1 -10 3 -12 4 -1 22 -24 40 -50 25 -36 28 -47 17 -51 -10 -4 -12
-1 -9 11 5 15 4 15 -6 2 -9 -12 -10 -11 -5 9 5 17 4 22 -5 16 -9 -6 -11 -4 -5
5 5 9 4 11 -4 6 -6 -4 -11 -4 -10 1 3 20 -2 34 -11 28 -6 -4 -9 -3 -8 2 3 7
-5 13 -18 13 -3 0 5 -15 18 -33 13 -17 23 -34 23 -37 1 -9 69 -104 93 -128 12
-12 22 -27 22 -31 0 -17 26 -31 37 -20 7 7 21 -4 45 -33 19 -24 49 -58 67 -77
17 -18 31 -41 30 -50 0 -11 -3 -8 -10 7 -5 13 -13 20 -19 17 -9 -6 -14 8 -11
28 1 7 -15 11 -33 8 -5 -1 -6 5 -2 14 4 11 2 14 -6 9 -7 -5 -8 -3 -3 6 6 9 4
11 -5 5 -9 -6 -11 -4 -5 5 6 9 4 11 -5 5 -9 -6 -11 -4 -5 5 6 9 4 11 -5 5 -9
-5 -11 -4 -6 4 4 6 2 19 -5 27 -9 12 -14 12 -20 2 -7 -11 45 -81 65 -85 5 -1
14 -12 21 -25 6 -13 17 -22 23 -21 7 2 12 -3 12 -10 0 -20 47 -59 56 -46 4 8
3 9 -4 5 -7 -4 -12 -4 -13 1 0 4 -2 17 -4 27 -3 17 -2 17 11 4 9 -8 17 -27 18
-41 3 -23 55 -80 71 -77 3 0 19 -12 35 -27 15 -15 39 -36 52 -46 22 -17 23
-17 37 0 13 17 13 17 7 -1 -7 -21 30 -70 46 -60 4 3 11 -2 14 -10 5 -14 8 -14
21 -1 8 9 19 13 24 10 12 -8 11 -25 -2 -25 -5 0 -7 5 -3 12 5 7 3 8 -6 3 -9
-5 -4 -14 16 -30 16 -13 32 -21 36 -18 5 2 8 0 8 -5 0 -15 48 -33 56 -20 5 7
3 8 -6 3 -9 -5 -11 -4 -6 3 4 8 2 10 -8 6 -9 -3 -19 3 -26 16 -7 13 -17 19
-26 16 -10 -4 -12 -2 -8 6 4 7 3 8 -4 4 -8 -5 -10 -1 -5 10 4 11 8 13 11 6 2
-7 10 -12 18 -12 8 0 14 -5 14 -11 0 -5 4 -8 9 -5 5 3 14 -1 21 -9 7 -8 17
-12 23 -8 6 4 7 1 2 -7 -6 -10 -4 -12 7 -7 9 3 24 -2 34 -11 11 -9 28 -19 39
-20 11 -2 23 -9 27 -15 4 -7 8 -8 8 -3 0 5 6 3 13 -3 8 -6 17 -8 20 -4 4 3 7
1 7 -5 0 -6 6 -10 13 -8 6 1 9 1 4 -1 -4 -3 -4 -9 -1 -14 3 -6 12 -5 21 2 12
10 16 10 24 -2 5 -8 9 -10 9 -5 0 5 7 2 17 -5 9 -8 18 -13 20 -11 1 1 4 2 6 1
12 -4 44 -10 55 -11 6 -1 12 -4 12 -8 0 -7 17 -10 55 -11 19 0 19 -1 2 -10
-10 -6 -14 -15 -10 -22 5 -9 2 -8 -9 0 -8 7 -18 10 -22 6 -4 -4 -5 -1 -3 7 2
8 2 12 0 8 -3 -5 -9 -8 -14 -8 -6 0 -8 4 -5 9 3 5 -1 11 -9 14 -10 4 -12 1 -9
-11 5 -13 4 -14 -4 -3 -6 8 -15 10 -22 6 -9 -6 -11 -4 -5 5 6 9 4 11 -5 5 -8
-5 -11 -4 -6 3 4 7 -1 10 -14 7 -14 -3 -18 0 -13 8 4 7 -2 5 -12 -3 -15 -12
-17 -12 -10 -1 6 10 4 12 -5 6 -8 -5 -11 -4 -7 2 4 6 -5 9 -21 8 -39 -2 -58 5
-40 16 10 7 10 9 1 9 -23 0 -28 2 -42 13 -12 10 -13 9 -6 -2 5 -10 4 -12 -4
-7 -6 4 -9 12 -6 17 6 9 -3 12 -37 12 -10 0 -15 3 -12 8 3 5 -2 6 -10 3 -9 -3
-16 -1 -16 5 0 6 -4 11 -10 11 -5 0 -10 -4 -10 -8 0 -11 56 -43 63 -36 3 3 15
-3 26 -13 12 -10 25 -18 29 -19 4 0 23 -8 42 -16 19 -9 38 -14 42 -12 5 3 8 0
8 -6 0 -7 7 -10 15 -7 8 4 17 2 20 -4 4 -5 11 -7 16 -4 5 4 9 1 9 -5 0 -6 6
-10 13 -9 6 1 26 -3 42 -10 17 -7 35 -14 40 -15 6 -1 16 -5 23 -9 6 -5 12 -5
12 -1 0 3 8 0 17 -7 10 -8 14 -9 10 -2 -4 6 -3 14 3 18 5 3 10 -1 10 -10 0 -9
5 -13 10 -10 17 10 -8 34 -31 30 -23 -5 -24 1 -4 21 8 9 15 11 15 6 0 -6 8 -9
18 -7 9 1 22 0 27 -4 6 -3 19 -7 30 -8 63 -7 75 -9 80 -15 4 -4 14 -4 23 -1
12 5 14 2 9 -13 -7 -19 -7 -19 8 0 8 11 15 14 15 8 0 -7 5 -12 11 -12 5 0 7 6
3 13 -6 9 -4 9 7 1 8 -5 33 -10 56 -9 33 1 40 -2 31 -12 -13 -16 4 -17 20 -1
17 17 42 19 49 2 3 -8 9 -11 14 -8 5 3 7 9 5 12 -2 4 39 7 92 6 54 0 102 2
107 5 6 3 28 7 50 8 74 6 100 10 125 20 14 6 30 8 37 6 7 -3 18 -1 25 3 7 5
20 9 28 9 8 0 22 4 30 10 13 8 13 7 1 -8 -8 -10 -9 -17 -3 -17 6 0 17 8 24 18
12 15 22 21 53 26 6 1 16 5 22 9 7 5 13 5 13 1 0 -3 6 -1 14 5 10 8 16 9 21 1
3 -5 11 -10 16 -10 6 0 7 4 4 10 -3 6 1 7 10 4 10 -4 15 -2 13 7 -2 8 4 14 12
14 8 0 21 4 28 8 6 5 12 5 12 0 0 -4 4 -2 9 5 4 7 14 14 22 15 8 2 20 6 27 10
6 5 12 5 12 1 0 -4 9 1 20 11 11 10 20 14 20 10 0 -4 9 0 20 10 11 10 20 15
20 11 0 -3 11 1 25 10 14 9 25 12 25 8 0 -5 5 -1 11 8 6 11 16 15 26 11 11 -4
14 -3 9 6 -4 6 -4 10 1 9 4 -2 29 12 55 30 26 17 49 32 52 32 3 0 14 6 23 14
58 47 113 85 113 77 0 -5 -6 -12 -12 -14 -10 -4 -10 -6 0 -6 7 -1 17 10 24 23
6 14 17 27 25 30 8 3 11 2 8 -3 -3 -5 -1 -12 4 -15 11 -7 22 18 13 30 -4 5 -5
8 -3 7 2 -2 10 5 17 15 7 9 16 17 21 17 5 0 24 17 42 37 18 21 37 35 42 32 5
-3 9 -1 9 5 0 17 51 62 62 55 7 -5 9 -1 5 9 -7 17 15 41 28 29 5 -4 6 0 2 9
-4 13 -1 16 16 12 18 -4 19 -3 7 6 -10 7 -11 11 -2 11 6 0 11 6 10 13 -2 6 3
11 11 9 9 -2 11 3 7 13 -4 12 -2 14 13 6 18 -10 31 -6 31 11 0 5 -4 7 -9 3
-23 -14 -18 16 5 34 15 12 23 21 18 21 -5 0 -1 5 9 11 9 6 15 14 12 20 -3 5 1
6 9 3 11 -4 14 0 11 15 -2 12 0 21 6 21 5 0 9 -4 9 -10 0 -5 7 -7 15 -4 14 6
13 8 -2 19 -17 13 -17 14 -1 20 10 4 15 12 11 18 -4 6 -1 7 7 2 10 -6 12 -4 7
8 -3 8 1 21 8 27 8 7 12 16 10 21 -3 4 4 13 15 19 11 6 18 15 15 20 -3 5 3 18
15 30 11 11 18 20 15 20 -3 0 0 10 7 23 7 12 12 25 13 29 0 4 8 16 17 28 10
11 15 20 13 20 -3 0 0 10 7 22 7 13 11 26 10 30 -1 4 6 5 16 1 13 -5 14 -3 6
6 -16 18 -6 51 13 44 13 -5 13 -2 4 15 -10 19 -9 21 6 15 16 -6 17 -5 3 12 -9
12 -10 16 -2 11 9 -6 11 -1 8 18 -2 14 1 30 9 36 8 6 12 20 10 31 -2 10 0 19
5 19 5 0 7 9 5 20 -2 11 -1 19 3 19 20 -3 25 2 12 11 -9 6 -10 10 -3 10 7 0
10 10 7 25 -3 16 1 27 10 31 9 4 12 16 9 41 -3 23 -1 33 5 29 6 -3 13 -2 17 4
3 5 1 10 -4 10 -11 0 -10 27 1 46 4 6 5 23 2 37 -2 15 -1 27 4 27 4 0 7 19 7
43 -1 23 1 47 4 52 11 19 7 355 -4 355 -5 0 -3 5 5 10 11 7 12 10 2 10 -10 0
-10 4 2 16 9 8 16 20 16 27 0 6 -6 3 -13 -7 -12 -16 -14 -16 -14 -2 0 9 4 16
9 16 5 0 6 5 3 10 -4 6 -10 8 -14 6 -4 -3 -7 15 -6 39 2 31 -1 42 -9 38 -6 -4
-5 0 2 9 10 12 10 17 1 20 -7 2 -13 15 -15 29 -1 13 -3 24 -4 24 -3 0 -12 41
-13 65 -1 14 -5 27 -9 30 -4 3 -9 15 -11 25 -1 11 -6 26 -10 33 -5 7 -3 12 5
12 8 1 7 4 -4 10 -9 6 -15 18 -14 27 2 10 -3 24 -11 31 -7 8 -11 18 -8 23 4 5
1 9 -4 9 -6 0 -11 9 -11 20 0 11 -4 20 -10 20 -5 0 -10 9 -10 19 0 11 -5 23
-10 26 -6 4 -8 11 -5 16 3 5 -3 18 -14 30 -11 12 -18 25 -16 29 2 4 -4 16 -15
27 -18 20 -21 45 -7 59 3 4 4 -3 2 -15 -2 -14 0 -19 7 -15 7 5 8 2 3 -6 -5 -9
-4 -11 3 -6 8 5 10 1 5 -10 -5 -13 -3 -15 7 -9 9 6 11 4 5 -5 -5 -8 -4 -11 3
-6 7 4 10 -1 7 -14 -3 -14 0 -18 8 -14 7 4 9 4 5 -1 -4 -4 1 -20 11 -34 10
-14 16 -32 13 -40 -3 -8 1 -19 9 -25 8 -6 14 -18 14 -26 0 -8 5 -14 12 -13 7
2 10 -6 8 -17 -3 -13 0 -18 7 -14 7 4 8 3 4 -4 -4 -7 -1 -12 6 -12 9 0 9 -3
-2 -10 -13 -9 -13 -10 0 -10 13 0 13 -2 0 -11 -13 -9 -12 -10 3 -5 12 4 16 2
11 -6 -5 -7 -2 -8 7 -3 11 6 12 5 2 -6 -15 -15 -17 -33 -4 -24 5 3 13 0 17 -6
4 -7 3 -9 -3 -6 -13 8 -13 -24 0 -41 8 -11 12 -11 18 0 6 9 9 9 9 1 0 -6 -4
-14 -10 -18 -5 -3 -6 -13 -3 -21 5 -13 8 -13 15 -2 8 10 9 10 5 -2 -2 -8 -10
-14 -17 -12 -6 1 -10 -3 -8 -10 3 -7 10 -14 16 -14 23 -3 24 -4 11 -21 -9 -11
-10 -14 -2 -9 9 5 11 2 7 -8 -3 -9 -1 -16 4 -16 15 0 24 18 13 25 -6 3 -8 12
-4 20 3 8 0 15 -7 15 -7 0 -9 8 -5 19 3 11 1 22 -5 26 -6 3 -8 11 -4 16 3 5 0
17 -7 25 -7 9 -14 21 -16 28 -8 38 -12 51 -13 54 -2 1 -3 5 -4 10 -1 4 -7 17
-14 30 -7 12 -9 22 -5 22 4 1 -2 9 -15 20 -12 10 -18 21 -13 24 10 7 -9 56
-22 56 -5 0 -5 5 -1 12 5 7 3 8 -6 3 -10 -6 -12 -4 -7 8 3 8 -1 21 -8 27 -8 7
-13 16 -10 20 3 4 -2 13 -10 20 -8 7 -13 16 -10 20 3 4 -2 11 -11 14 -8 3 -13
10 -9 15 3 5 -3 16 -12 23 -10 7 -19 20 -21 28 -2 8 -7 21 -11 28 -7 12 -9 11
-14 -2 -5 -11 -3 -15 5 -10 7 4 8 3 4 -4 -4 -7 -3 -12 2 -12 5 0 9 -7 9 -15 0
-8 -4 -15 -9 -15 -4 0 -8 7 -8 15 0 8 -5 15 -11 15 -6 0 -8 9 -4 20 4 11 3 20
-2 19 -21 -4 -34 2 -31 13 2 6 -7 22 -19 34 -19 19 -22 28 -14 43 8 14 6 24
-8 40 -10 11 -21 18 -25 14 -10 -11 -7 -23 7 -21 6 2 11 -3 9 -10 -1 -8 2 -11
9 -6 8 5 9 3 5 -5 -10 -15 -42 11 -51 40 -4 11 -11 16 -18 13 -7 -4 -9 -3 -4
1 4 5 -2 19 -14 31 -15 16 -17 24 -8 29 8 6 10 4 4 -5 -6 -9 -4 -11 5 -5 9 6
11 4 5 -5 -6 -9 -4 -11 5 -5 9 6 11 4 5 -5 -6 -9 -4 -11 5 -5 7 5 11 4 7 -1
-3 -5 1 -17 8 -27 11 -15 13 -15 18 -2 4 8 1 14 -5 12 -7 -1 -12 3 -13 8 0 6
-9 22 -20 36 -17 22 -23 24 -33 12 -13 -14 -36 -8 -27 7 3 4 -7 15 -20 24 -27
18 -26 39 1 29 13 -5 13 -7 2 -14 -10 -7 -9 -9 5 -9 16 0 22 -12 17 -35 -1 -5
2 -6 7 -2 14 15 10 31 -15 55 -15 15 -31 21 -43 17 -13 -4 -19 -2 -19 9 0 9
-6 15 -12 13 -7 -1 -12 4 -11 11 2 6 -3 12 -11 12 -8 0 -29 17 -47 38 -18 20
-35 37 -39 37 -3 0 -12 6 -20 12 -8 7 -28 23 -44 36 -22 18 -26 26 -16 32 9 6
11 4 5 -5 -6 -9 -4 -11 5 -5 9 5 11 4 6 -4 -4 -6 -3 -10 2 -9 5 2 21 -10 36
-25 14 -15 26 -23 26 -18 0 6 8 3 18 -6 11 -10 17 -22 14 -27 -3 -5 1 -6 8 -1
9 6 11 4 5 -5 -6 -9 -4 -11 5 -5 9 6 11 4 5 -5 -6 -9 -4 -11 5 -5 8 5 11 4 6
-3 -3 -6 3 -13 14 -17 11 -3 28 -17 38 -30 11 -13 22 -22 25 -19 9 9 -129 138
-148 139 -5 1 -9 7 -7 15 2 8 1 12 -3 8 -4 -4 -18 4 -32 18 -19 19 -28 22 -44
14 -15 -9 -24 -6 -43 13 -12 12 -28 21 -34 19 -11 -3 -17 11 -13 32 1 5 -5 6
-14 2 -18 -7 -52 21 -40 32 4 4 10 1 12 -6 3 -6 10 -9 15 -6 7 4 8 2 4 -4 -5
-8 -1 -10 10 -5 13 5 8 10 -22 26 -22 11 -42 24 -45 29 -3 5 -9 3 -12 -6 -6
-14 4 -21 25 -17 4 0 4 -7 1 -16 -4 -11 -8 -13 -11 -5 -2 7 -10 12 -18 12 -10
0 -13 7 -9 23 5 18 1 26 -19 35 -19 8 -27 8 -32 0 -5 -7 -3 -8 6 -3 9 6 11 4
5 -5 -6 -10 -4 -12 8 -7 20 8 29 -4 16 -23 -6 -11 -9 -12 -9 -2 0 7 -4 10 -10
7 -5 -3 -10 -1 -10 5 0 6 -5 8 -12 4 -7 -5 -8 -3 -3 6 6 10 4 12 -8 7 -8 -3
-21 1 -27 8 -7 8 -17 12 -23 8 -6 -4 -7 -1 -2 7 5 9 2 10 -12 6 -12 -4 -25 -1
-33 9 -7 8 -16 12 -21 9 -5 -3 -9 0 -9 5 0 6 -6 10 -12 8 -7 -1 -12 4 -10 11
1 8 -6 11 -22 8 -13 -2 -27 -1 -31 2 -4 4 -11 8 -16 8 -5 1 -11 3 -14 4 -3 1
-9 4 -15 5 -5 1 -11 3 -12 5 -4 2 -41 11 -55 12 -7 1 -13 4 -13 8 0 7 -17 10
-55 11 -19 0 -19 1 -2 10 9 6 14 15 11 21 -4 7 -2 8 5 4 6 -4 9 -12 6 -17 -4
-5 -2 -9 3 -9 11 0 25 30 17 38 -3 3 -5 -1 -5 -8 0 -9 -6 -8 -20 5 -11 10 -20
15 -20 10 0 -4 -8 -1 -17 6 -10 8 -14 9 -10 2 4 -6 3 -14 -3 -18 -5 -3 -10 1
-10 10 0 11 -5 15 -15 11 -8 -3 -15 0 -15 5 0 6 -9 9 -20 6 -11 -3 -22 -1 -25
3 -3 5 -13 7 -23 5 -9 -1 -31 3 -47 10 -17 6 -40 10 -52 9 -12 -2 -25 1 -28 6
-4 7 -13 6 -27 -1 -16 -8 -22 -8 -29 2 -6 11 -11 11 -20 2 -10 -10 -15 -9 -25
5 -10 12 -13 13 -14 3 0 -11 -3 -11 -17 0 -11 10 -14 10 -9 2 9 -16 -6 -17
-22 -1 -9 9 -12 9 -12 -1 0 -7 -5 -9 -12 -4 -17 10 -158 11 -152 1 7 -11 -4
-10 -26 2 -16 9 -18 7 -15 -12z m99 3 c-7 -8 -54 -9 -49 -1 2 3 15 6 29 6 14
0 23 -2 20 -5z m-175 -4 c-2 -2 -11 -8 -20 -15 -12 -9 -16 -9 -16 1 0 7 9 14
20 14 11 1 18 1 16 0z m326 -7 c-3 -5 -12 -10 -18 -10 -7 0 -6 4 3 10 19 12
23 12 15 0z m130 -10 c-3 -5 -13 -6 -21 -3 -12 4 -13 8 -3 14 15 9 32 2 24
-11z m55 4 c0 -8 -19 -13 -24 -6 -3 5 1 9 9 9 8 0 15 -2 15 -3z m-280 -1011
c51 -10 107 -72 115 -127 6 -38 3 -55 -19 -100 l-27 -55 97 -165 96 -166 37
29 c20 16 94 76 164 133 l129 104 1 56 c3 96 62 153 156 153 70 -1 110 -26
141 -89 35 -74 6 -163 -65 -202 l-35 -19 0 -465 0 -465 45 -24 c49 -26 85 -84
85 -137 0 -60 -46 -122 -110 -150 -32 -13 -112 -1 -145 23 -38 28 -67 95 -63
147 l3 43 -165 133 c-91 73 -183 147 -205 165 -43 36 -212 172 -232 188 -10 7
-13 -54 -13 -302 0 -278 2 -311 16 -311 48 0 113 -89 114 -155 0 -71 -84 -154
-155 -155 -17 0 -51 10 -75 23 -116 58 -115 218 1 277 l39 20 0 316 0 316 -42
-34 c-144 -117 -482 -388 -529 -425 l-56 -44 10 -39 c20 -72 -25 -154 -99
-185 -36 -14 -114 -3 -149 22 -31 22 -65 90 -65 128 0 52 37 110 85 136 l45
24 0 452 0 452 -42 23 c-48 26 -88 91 -88 143 0 49 40 107 90 133 56 29 118
24 166 -13 37 -28 69 -101 62 -140 -5 -24 11 -39 161 -161 91 -73 168 -134
171 -134 3 1 49 78 103 172 l97 171 -25 50 c-14 28 -25 65 -25 81 0 46 40 107
85 133 42 24 63 27 115 16z m1770 -128 c14 -19 14 -19 -2 -6 -10 7 -18 18 -18
24 0 6 1 8 3 6 1 -2 9 -13 17 -24z m-3414 -1953 c12 -17 12 -22 2 -23 -7 0 -3
-5 10 -11 12 -6 22 -15 22 -19 0 -5 10 -17 22 -29 12 -11 16 -20 9 -20 -7 0
-9 -5 -5 -12 4 -7 3 -8 -5 -4 -6 4 -9 10 -7 14 5 8 -19 44 -28 43 -3 -1 -6 2
-5 6 0 3 -6 10 -15 15 -9 5 -13 15 -9 25 4 11 2 14 -5 9 -6 -3 -16 2 -21 13
-15 28 15 22 35 -7z m320 -374 c-8 -5 -7 -8 2 -8 6 0 12 -5 12 -12 0 -7 -16 3
-35 22 -40 39 -37 61 4 28 18 -15 24 -26 17 -30z m45 -22 c5 3 8 0 7 -8 -2 -7
5 -12 14 -12 10 1 16 -2 13 -6 -3 -5 3 -11 14 -15 10 -3 21 -16 24 -28 l6 -22
-19 23 c-10 12 -22 22 -26 22 -12 0 -54 42 -53 54 0 6 3 5 6 -2 2 -6 9 -10 14
-6z m122 -93 c-10 -3 -10 -7 0 -18 8 -9 14 -9 19 -2 4 7 11 7 22 -2 9 -7 13
-17 10 -23 -3 -5 -12 -4 -20 3 -8 6 -14 8 -14 4 0 -5 -9 0 -20 10 -20 18 -18
36 3 34 9 0 9 -2 0 -6z"/>
<path d="M1937 2628 c-72 -115 -196 -342 -190 -348 42 -36 213 -170 217 -170
10 0 7 528 -4 535 -5 3 -16 -5 -23 -17z"/>
<path d="M2036 2643 c-8 -9 -8 -513 1 -513 3 0 52 37 107 82 56 45 103 83 105
85 5 3 -188 341 -199 348 -4 2 -10 2 -14 -2z"/>
<path d="M2548 2459 c-62 -51 -134 -108 -160 -128 -26 -20 -47 -41 -47 -48 -1
-6 46 -92 102 -190 57 -98 148 -256 203 -350 54 -95 105 -173 112 -173 10 0
12 97 10 467 -3 459 -3 468 -23 472 -11 2 -32 12 -47 22 -14 11 -29 19 -32 19
-3 0 -56 -41 -118 -91z"/>
<path d="M1315 2530 c-3 -6 -24 -19 -46 -30 l-39 -20 0 -455 c0 -357 3 -455
13 -455 10 0 406 673 410 697 1 8 -212 186 -290 243 -25 18 -44 26 -48 20z"/>
<path d="M2156 2144 c-97 -79 -116 -98 -105 -109 8 -7 95 -77 194 -157 99 -79
237 -190 308 -247 70 -56 131 -101 136 -99 4 2 -20 50 -54 108 -34 58 -126
216 -205 353 -78 136 -145 247 -149 247 -3 0 -59 -44 -125 -96z"/>
<path d="M1641 2117 c-36 -61 -123 -212 -194 -335 -71 -123 -127 -225 -125
-227 7 -6 607 481 605 491 -2 10 -209 184 -218 184 -2 0 -33 -51 -68 -113z"/>
<path d="M685 520 c10 -11 20 -20 23 -20 3 0 -3 9 -13 20 -10 11 -20 20 -23
20 -3 0 3 -9 13 -20z"/>
<path d="M1819 3965 c-1 -3 -2 -9 -3 -14 0 -5 -4 -13 -8 -17 -5 -4 -8 -12 -8
-17 0 -5 8 1 19 14 16 19 21 21 34 11 9 -8 18 -9 21 -3 4 5 2 12 -4 16 -5 3
-10 4 -10 0 0 -3 -9 -1 -20 5 -11 6 -21 8 -21 5z"/>
<path d="M1998 3959 c-10 -7 -10 -9 2 -9 13 0 13 -1 0 -10 -8 -5 -10 -10 -4
-10 5 0 15 5 22 12 7 7 12 8 12 2 0 -13 46 -12 57 0 4 5 3 6 -4 2 -6 -3 -15
-1 -20 6 -9 15 -46 19 -65 7z"/>
<path d="M1704 3938 c-4 -6 -15 -8 -25 -5 -11 3 -16 1 -13 -4 3 -6 0 -18 -8
-27 -12 -15 -11 -16 5 -3 14 11 20 11 35 0 15 -13 16 -12 3 4 -7 9 -11 18 -7
18 3 1 10 2 15 3 5 0 13 4 17 8 4 4 14 2 22 -4 17 -15 42 -19 42 -8 0 19 -76
34 -86 18z"/>
<path d="M1956 3942 c-3 -5 1 -9 9 -9 8 0 12 4 9 9 -3 4 -7 8 -9 8 -2 0 -6 -4
-9 -8z"/>
<path d="M2196 3942 c-2 -4 9 -8 25 -8 33 -2 33 4 1 11 -12 2 -24 1 -26 -3z"/>
<path d="M2265 3940 c-3 -5 -5 -10 -3 -11 29 -7 36 -5 31 7 -6 16 -19 18 -28
4z"/>
<path d="M1461 3923 c-1 -7 -4 -12 -8 -11 -19 4 -82 -15 -77 -23 3 -5 13 -5
22 -1 32 15 47 8 48 -23 1 -16 2 -31 3 -32 1 -1 13 9 27 22 24 23 61 25 47 2
-3 -6 -1 -7 5 -3 6 4 9 13 5 21 -6 17 8 20 23 5 8 -8 15 -6 25 6 8 10 9 15 2
11 -6 -4 -14 -3 -17 1 -3 5 -15 8 -28 7 -13 -1 -32 5 -42 14 -11 9 -16 10 -12
4 4 -7 3 -13 -3 -13 -5 0 -12 6 -14 13 -4 10 -6 10 -6 0z m49 -23 c3 -1 10 -1
15 0 5 1 6 -2 2 -7 -5 -4 -12 -8 -15 -8 -4 -1 -17 -6 -29 -13 -13 -7 -24 -10
-24 -7 -1 3 -2 8 -3 13 -1 4 -4 12 -8 18 -5 7 4 10 25 8 18 -1 34 -3 37 -4z"/>
<path d="M1463 3883 c0 -8 6 -9 19 -2 10 5 18 11 18 12 0 2 -8 3 -18 3 -10 0
-19 -6 -19 -13z"/>
<path d="M2430 3921 c0 -5 8 -12 18 -16 27 -13 43 -14 36 -4 -3 5 -10 7 -15 4
-5 -4 -12 1 -15 9 -7 17 -24 22 -24 7z"/>
<path d="M2581 3889 c-7 -12 -8 -19 -4 -16 5 3 21 0 36 -8 15 -8 27 -11 27 -8
0 3 7 0 15 -7 8 -7 15 -9 15 -5 0 4 7 1 17 -6 9 -8 18 -13 20 -11 1 1 6 1 11
1 4 -1 18 -2 32 -3 15 -1 24 -6 22 -14 -1 -8 2 -11 7 -8 5 3 21 -4 36 -15 19
-16 30 -18 37 -11 8 8 16 4 30 -13 17 -22 48 -25 48 -5 0 7 -65 43 -80 45 -3
0 -12 5 -20 10 -8 5 -23 8 -34 6 -13 -2 -16 1 -10 11 4 7 4 10 0 6 -5 -4 -23
2 -42 13 -19 10 -34 14 -34 8 0 -5 -5 -7 -10 -4 -6 4 -8 10 -5 15 3 5 -4 7
-15 5 -11 -2 -20 1 -20 6 0 6 -4 7 -10 4 -5 -3 -20 1 -33 9 -21 14 -24 14 -36
-5z m50 -16 c13 -16 12 -17 -3 -4 -17 13 -22 21 -14 21 2 0 10 -8 17 -17z m62
-23 c10 -12 9 -12 -4 -2 -9 6 -18 9 -21 6 -3 -3 -9 -1 -12 4 -9 15 22 8 37 -8z
m37 -10 c0 -5 -2 -10 -4 -10 -3 0 -8 5 -11 10 -3 6 -1 10 4 10 6 0 11 -4 11
-10z m121 -44 c8 4 10 3 5 -4 -11 -18 -24 -14 -36 11 -10 21 -10 21 4 3 8 -10
20 -15 27 -10z m59 -38 c0 -6 -6 -5 -15 2 -8 7 -15 14 -15 16 0 2 7 1 15 -2 8
-4 15 -11 15 -16z"/>
<path d="M1330 3875 c0 -8 5 -17 12 -21 6 -4 8 -3 4 4 -3 6 -1 14 5 18 8 5 9
3 4 -6 -6 -10 -4 -12 8 -7 9 3 19 2 23 -4 4 -7 10 -7 18 0 8 7 12 4 13 -12 1
-12 -1 -17 -5 -12 -4 6 -20 11 -35 12 -22 2 -27 -1 -23 -12 9 -25 -1 -17 -23
18 -11 17 -21 26 -21 18 0 -8 -3 -11 -6 -8 -10 9 -46 -13 -42 -25 2 -6 13 -12
24 -14 19 -3 19 -3 0 12 -11 8 -15 14 -8 14 14 0 47 -48 38 -57 -3 -3 -6 -1
-6 6 0 8 -6 11 -16 7 -10 -4 -13 -2 -9 7 4 6 -1 3 -9 -7 -9 -11 -16 -16 -17
-10 -3 35 -19 74 -19 46 0 -6 -7 -9 -15 -6 -8 4 -15 1 -15 -6 0 -6 -4 -9 -9
-5 -5 3 -12 1 -16 -5 -4 -6 -11 -7 -17 -4 -7 5 -8 2 -4 -5 5 -8 3 -11 -5 -10
-22 4 -69 -19 -76 -37 -5 -13 -7 -13 -14 -2 -7 10 -9 11 -9 0 0 -7 -5 -10 -12
-6 -7 5 -8 3 -3 -6 6 -10 4 -12 -7 -7 -17 6 -19 -16 -3 -30 4 -5 4 -1 0 7 -8
13 -7 13 10 0 17 -14 18 -13 12 2 -3 10 -1 20 5 24 7 5 8 2 3 -6 -5 -8 -4 -11
2 -7 5 3 9 -4 8 -16 -1 -12 2 -28 8 -35 6 -7 6 -12 1 -11 -5 1 -11 0 -14 -1
-18 -8 -58 -5 -56 4 2 6 1 8 -1 4 -3 -5 -10 -8 -15 -8 -6 0 -8 3 -5 7 4 3 1
13 -6 22 -11 14 -10 14 6 2 9 -7 17 -10 17 -5 0 5 7 1 14 -9 8 -10 17 -14 20
-9 3 5 -6 19 -19 30 -14 12 -25 17 -25 11 0 -5 -5 -7 -10 -4 -6 3 -17 0 -25
-7 -26 -23 -41 -33 -55 -36 -8 -2 -23 -13 -34 -25 -10 -12 -20 -20 -23 -19 -2
2 -18 -8 -36 -22 -17 -14 -34 -26 -39 -26 -4 0 -8 -7 -8 -15 0 -8 -3 -14 -7
-14 -21 3 -32 -3 -38 -21 -3 -11 -9 -19 -13 -17 -18 5 -49 -30 -46 -53 4 -36
3 -36 14 -20 5 9 5 19 -1 26 -7 9 -5 12 8 9 10 -1 17 -8 16 -13 -2 -7 5 -9 15
-6 14 5 14 4 2 -4 -8 -6 -18 -8 -22 -6 -4 3 -8 0 -8 -5 0 -6 5 -11 11 -11 5 0
7 -5 3 -11 -5 -8 -9 -8 -14 1 -5 9 -9 9 -14 1 -4 -6 -1 -11 6 -11 10 0 10 -2
-1 -9 -8 -5 -23 -8 -33 -6 -12 3 -18 -1 -15 -8 2 -7 9 -12 16 -12 6 0 15 -4
19 -10 4 -6 18 1 34 18 15 15 21 27 15 27 -7 0 -6 4 3 10 13 8 13 10 1 10 -11
0 -9 4 4 14 11 8 23 12 27 10 4 -2 9 0 13 6 3 5 11 10 16 10 6 0 7 -5 3 -12
-4 -6 -3 -8 4 -4 6 3 9 18 6 31 -5 26 5 32 22 15 12 -12 57 16 49 30 -7 12 30
32 40 22 5 -4 5 -2 2 4 -7 13 29 40 53 39 8 0 25 10 38 22 13 12 27 22 31 21
3 -1 20 6 38 15 23 12 31 23 28 37 -4 21 4 26 20 13 6 -5 7 -4 3 1 -10 13 39
49 54 39 23 -14 39 -12 51 7 7 13 15 16 23 9 7 -6 16 -4 24 6 7 8 9 15 4 15
-5 0 -2 4 6 10 9 5 19 5 26 -1 9 -7 16 -5 23 9 6 11 19 19 28 17 10 -1 23 2
30 7 7 5 17 7 22 4 12 -8 22 8 25 38 2 14 -3 23 -11 23 -7 0 -13 -4 -13 -8 0
-4 -9 -6 -20 -3 -11 2 -29 6 -40 8 -12 3 -20 0 -20 -9z m1 -38 c6 -10 5 -18
-3 -23 -7 -4 -10 -4 -6 1 4 4 -3 16 -15 26 -19 16 -20 17 -3 15 10 -1 22 -10
27 -19z m59 -3 c0 -8 -19 -13 -24 -6 -3 5 1 9 9 9 8 0 15 -2 15 -3z m-145 -12
c-3 -3 2 -16 10 -29 9 -13 13 -23 10 -23 -11 0 -20 5 -18 12 1 3 -4 9 -12 12
-9 3 -12 0 -8 -10 3 -7 0 -14 -6 -14 -6 0 -10 -5 -8 -12 3 -15 -23 -18 -40 -5
-7 5 -10 14 -6 19 3 6 0 9 -8 6 -8 -3 -14 -10 -14 -17 0 -15 -35 -42 -46 -36
-4 3 -10 -1 -13 -7 -2 -7 -3 -2 -1 12 2 14 4 28 4 31 1 8 54 33 65 30 5 -1 17
6 27 15 11 9 19 13 19 9 0 -5 5 -4 10 1 6 6 17 11 25 11 8 0 13 -3 10 -5z
m-260 -142 c-7 -12 25 -28 48 -24 11 1 16 -1 12 -4 -4 -4 -10 -7 -13 -7 -4 -1
-17 -6 -29 -13 -13 -7 -23 -9 -23 -5 0 4 -5 0 -11 -9 -5 -10 -16 -15 -24 -12
-8 4 -15 2 -15 -3 0 -5 -20 -22 -45 -37 -24 -16 -42 -33 -38 -38 9 -15 -19
-28 -34 -16 -14 11 -47 -8 -38 -22 5 -9 -25 -37 -34 -32 -33 20 -47 26 -55 24
-5 -2 -4 4 3 12 7 9 17 14 21 11 4 -3 15 7 24 20 9 14 21 23 26 20 5 -3 14 4
20 16 7 11 14 18 17 15 3 -3 16 8 30 24 13 16 27 29 31 29 20 -3 32 2 30 14
-2 6 3 11 10 10 6 -2 12 2 12 9 0 6 3 8 6 5 4 -3 18 2 32 13 23 19 48 19 37 0z
m-290 -290 c-10 -11 -21 -18 -23 -15 -3 3 3 12 14 20 27 20 30 18 9 -5z"/>
<path d="M1215 3810 c-4 -6 -10 -8 -15 -5 -10 6 -26 -15 -26 -34 1 -8 9 -15
18 -17 10 -1 17 1 17 4 -1 4 0 10 1 15 1 4 3 13 4 20 1 6 8 11 15 9 7 -1 10 2
6 8 -8 13 -12 13 -20 0z m-11 -19 c3 -5 -1 -14 -8 -20 -12 -10 -14 -9 -11 6 2
10 4 19 4 21 2 5 10 2 15 -7z"/>
<path d="M1117 3769 c-31 -23 -27 -45 4 -28 12 6 18 13 15 16 -3 4 -1 12 5 20
16 18 9 16 -24 -8z m13 -13 c0 -2 -7 -7 -16 -10 -8 -3 -12 -2 -9 4 6 10 25 14
25 6z"/>
<path d="M940 3665 c-18 -13 -38 -22 -43 -18 -6 3 -7 1 -3 -5 3 -6 -3 -16 -14
-22 -11 -6 -20 -8 -20 -4 0 4 -9 -1 -19 -10 -11 -10 -17 -24 -14 -32 3 -9 -2
-12 -16 -9 -12 2 -19 0 -16 -4 5 -9 -23 -26 -38 -23 -4 1 -13 -9 -19 -23 -8
-17 -17 -24 -27 -20 -12 4 -11 1 2 -9 20 -15 53 -14 50 2 -1 5 7 18 17 27 16
15 22 15 35 5 8 -7 16 -10 16 -6 7 32 21 56 30 51 4 -3 24 10 43 28 26 26 38
31 47 23 9 -8 10 -8 5 2 -4 6 -2 13 3 13 6 1 16 3 21 4 6 1 16 3 22 4 7 0 2 8
-10 17 -12 8 -20 20 -17 25 10 14 1 11 -35 -16z m39 -8 c8 -10 7 -14 -2 -15
-6 0 -21 -3 -32 -6 -11 -2 -23 -5 -27 -5 -5 -1 -7 -4 -5 -8 1 -5 -1 -8 -5 -8
-4 0 -14 -10 -23 -22 -13 -18 -22 -20 -54 -14 -2 1 2 8 9 16 7 8 16 13 20 10
4 -3 27 11 51 30 50 39 53 40 68 22z m-149 -112 c-5 -7 -6 -16 -2 -21 4 -4 -1
-2 -10 5 -20 15 -17 28 6 28 11 0 13 -4 6 -12z m-45 -15 c-3 -5 -15 -15 -25
-20 -16 -8 -18 -8 -14 5 3 8 10 13 14 10 5 -3 11 -1 15 5 3 5 8 10 11 10 3 0
2 -4 -1 -10z"/>
<path d="M945 3650 c-3 -6 1 -7 9 -4 18 7 21 14 7 14 -6 0 -13 -4 -16 -10z"/>
<path d="M845 3589 c-3 -4 2 -6 10 -5 21 3 28 13 10 13 -9 0 -18 -4 -20 -8z"/>
<path d="M1050 3695 c5 -7 6 -16 2 -21 -4 -5 -3 -5 2 -1 15 12 15 34 0 34 -9
0 -11 -4 -4 -12z"/>
<path d="M3100 3662 c0 -7 0 -15 0 -19 0 -5 4 -8 10 -8 5 0 16 -9 24 -20 9
-11 16 -15 16 -10 0 6 4 4 9 -4 6 -9 11 -10 15 -2 4 6 2 11 -4 11 -6 0 -8 5
-4 12 4 7 3 8 -4 4 -7 -4 -12 -2 -12 5 0 7 -3 9 -6 6 -4 -4 -15 3 -25 15 -11
11 -19 16 -19 10z"/>
<path d="M571 3393 c-40 -42 -85 -93 -99 -112 -15 -20 -35 -42 -44 -49 -10 -7
-15 -19 -11 -30 3 -9 3 -14 -2 -10 -13 12 -35 -12 -28 -29 5 -12 3 -14 -7 -8
-8 5 -11 4 -6 -3 4 -6 13 -9 21 -6 8 4 13 9 10 13 -2 4 2 8 10 8 8 0 15 -5 15
-11 0 -6 4 -5 9 3 5 8 8 1 7 -23 -1 -32 -3 -34 -13 -19 -7 9 -13 15 -14 12 0
-2 -2 -12 -4 -21 -2 -10 1 -18 6 -18 5 0 9 -5 9 -12 0 -9 -3 -9 -12 0 -16 16
-31 15 -25 -1 3 -7 -1 -21 -9 -31 -7 -11 -11 -23 -7 -28 3 -6 -4 -5 -16 1 -18
10 -20 9 -14 -5 4 -12 3 -15 -6 -10 -7 5 -10 15 -7 23 3 8 2 12 -2 9 -5 -3 -9
1 -9 9 0 7 8 12 18 10 10 -2 21 0 24 6 4 5 -1 9 -9 9 -9 0 -16 5 -16 10 0 12
22 9 32 -5 4 -5 6 0 5 12 0 12 -5 19 -11 16 -5 -3 -6 -1 -2 6 4 6 11 9 16 6 4
-3 19 4 31 16 21 18 21 20 4 14 -11 -4 -27 -8 -35 -9 -23 -3 -41 -16 -35 -27
4 -5 1 -9 -4 -9 -6 0 -11 -6 -11 -14 0 -8 -4 -16 -8 -18 -12 -5 -52 -65 -52
-78 0 -7 8 -9 19 -5 23 7 38 -10 15 -19 -8 -3 -13 -2 -9 3 3 5 -7 6 -22 2 -16
-4 -28 -12 -28 -17 -1 -5 -6 -19 -13 -31 -7 -13 -9 -23 -5 -23 4 0 1 -5 -7
-10 -8 -5 -15 -13 -15 -17 -1 -4 -6 -18 -13 -30 -7 -13 -9 -23 -5 -23 4 0 2
-4 -5 -9 -7 -4 -14 -14 -16 -22 -1 -8 -8 -25 -16 -39 -7 -14 -12 -25 -11 -25
3 0 -3 -20 -15 -50 -4 -11 -6 -26 -5 -34 1 -7 -2 -10 -8 -7 -6 4 -8 -2 -6 -14
2 -11 -1 -20 -7 -20 -6 0 -9 -3 -5 -6 3 -3 14 -1 24 5 14 8 15 11 3 11 -12 0
-12 2 2 10 10 6 15 19 13 30 -2 11 0 20 5 20 5 0 7 9 5 19 -3 15 1 18 13 14
13 -4 14 -3 3 5 -9 6 -10 12 -3 16 6 4 9 14 6 24 -5 13 -4 14 4 3 12 -16 27 3
16 21 -5 7 -3 8 7 3 11 -7 11 -5 -1 11 -14 17 -13 18 1 7 9 -7 20 -9 24 -5 5
4 5 1 0 -7 -5 -8 -4 -12 1 -8 5 3 10 -3 10 -14 0 -18 -2 -19 -12 -4 -10 13
-12 8 -9 -29 1 -25 -2 -43 -6 -40 -5 3 -9 0 -9 -6 0 -6 -5 -8 -12 -4 -7 4 -8
3 -4 -4 5 -8 2 -10 -8 -6 -9 3 -16 1 -16 -6 0 -6 4 -9 9 -5 5 3 13 0 17 -6 5
-8 2 -10 -7 -5 -8 4 -6 1 3 -7 10 -8 15 -17 11 -20 -3 -4 -11 1 -18 9 -11 15
-12 15 -12 0 0 -9 4 -16 9 -16 4 0 8 -5 8 -11 0 -8 -6 -7 -17 2 -14 12 -16 12
-8 0 6 -10 4 -12 -5 -6 -9 5 -11 4 -6 -3 4 -8 2 -10 -7 -6 -18 7 -50 -24 -43
-42 3 -8 0 -14 -6 -14 -7 0 -3 -7 8 -15 19 -14 19 -14 -2 -11 -17 4 -20 0 -18
-22 1 -15 3 -29 4 -32 1 -3 2 -8 1 -12 0 -5 4 -8 10 -8 6 0 8 7 5 16 -3 8 -2
12 3 9 6 -3 9 -14 8 -25 -1 -10 -5 -16 -10 -13 -5 3 -4 -5 3 -17 7 -13 8 -20
2 -16 -6 3 -13 2 -17 -4 -4 -6 -11 -8 -16 -4 -5 3 -6 10 -3 16 11 18 13 58 3
58 -9 0 -11 -13 -13 -77 -1 -16 -4 -30 -7 -33 -7 -5 -18 -71 -25 -150 -8 -79
-10 -311 -4 -315 4 -2 6 -23 4 -45 -2 -35 0 -41 14 -35 13 5 12 1 -4 -16 -10
-12 -14 -20 -8 -16 8 4 11 -8 9 -39 -1 -32 3 -48 14 -54 9 -5 11 -10 4 -10 -8
0 -12 -35 -3 -35 1 0 3 -7 5 -15 2 -8 6 -28 10 -45 4 -16 7 -40 8 -52 1 -12 5
-21 10 -20 5 1 12 -4 15 -12 3 -10 0 -11 -9 -5 -11 6 -12 5 -2 -8 7 -8 10 -18
6 -21 -3 -4 -1 -13 5 -20 7 -8 9 -17 5 -20 -3 -4 0 -14 8 -23 7 -9 15 -23 16
-33 5 -23 11 -46 13 -48 2 -2 3 -6 4 -10 1 -5 8 -19 16 -33 7 -14 13 -26 12
-27 -1 -2 0 -3 3 -3 3 0 8 0 11 0 4 0 1 6 -5 14 -9 11 -9 16 0 22 9 5 9 10 -2
18 -8 6 -15 20 -16 31 -3 31 -11 64 -20 78 -4 6 -8 23 -8 37 0 14 -4 31 -8 38
-5 6 -5 12 -1 12 3 0 1 7 -6 15 -7 8 -9 15 -4 15 5 1 -2 7 -15 14 -19 10 -20
14 -8 19 11 4 15 15 12 34 -2 15 -4 28 -5 28 -1 0 -3 8 -5 18 -2 10 -11 27
-20 38 -12 12 -15 24 -10 36 12 26 13 76 2 90 -5 7 -5 18 -1 25 14 22 15 43 1
29 -6 -6 -15 -11 -19 -11 -15 0 -4 34 17 53 11 10 15 16 9 13 -16 -8 -27 25
-14 38 8 8 9 6 5 -6 -4 -10 -3 -18 3 -18 11 0 11 18 -2 38 -4 7 -2 19 5 28 7
8 8 14 3 13 -23 -4 -35 2 -27 14 8 12 9 17 12 38 0 5 5 8 10 4 6 -3 8 4 6 16
-3 12 -1 27 2 33 4 6 8 29 8 51 0 22 4 46 8 53 5 6 4 12 -2 12 -5 0 -12 -6
-14 -12 -4 -10 -6 -10 -6 0 -1 7 6 15 15 19 13 5 13 7 2 14 -11 7 -10 11 1 18
19 12 22 38 6 51 -9 8 -15 8 -20 0 -3 -5 2 -10 12 -10 15 0 16 -2 3 -10 -10
-6 -18 -4 -24 8 -22 37 -13 54 28 57 17 2 18 1 2 -11 -10 -6 -13 -15 -8 -18
14 -8 31 16 28 39 -2 11 4 29 13 39 9 11 10 16 3 12 -17 -10 -15 9 2 24 8 6
12 18 9 26 -3 8 -1 14 5 14 6 0 9 6 8 13 -3 19 -17 38 -25 33 -4 -3 -13 5 -21
17 -12 21 -12 21 5 7 14 -11 19 -12 22 -2 3 6 8 10 13 7 4 -2 15 4 25 15 10
11 15 20 11 20 -4 0 -1 10 6 23 7 12 11 26 10 31 -2 5 3 13 10 17 10 7 10 9
-2 9 -10 0 -8 5 7 15 13 9 20 23 18 35 -2 11 4 24 13 30 9 5 13 10 8 10 -5 0
-2 7 5 16 17 20 20 44 7 44 -6 0 -6 6 2 15 7 8 16 13 20 10 7 -5 22 20 17 29
-1 3 8 15 20 28 15 16 20 27 13 34 -7 7 2 24 26 52 19 23 32 42 29 42 -4 0 -2
7 5 15 7 8 16 12 21 9 5 -3 6 3 2 12 -4 11 -2 15 4 11 6 -4 18 4 26 17 9 13
23 31 32 40 12 12 13 16 3 16 -10 0 -9 3 2 11 13 9 12 10 -2 5 -20 -6 -25 9
-5 17 6 2 14 4 17 4 3 0 15 5 28 12 17 9 20 16 13 25 -14 17 0 33 26 31 12 -1
20 2 18 6 -3 4 2 12 10 19 7 6 11 19 8 27 -5 12 -2 15 9 10 9 -3 23 2 34 14 9
10 14 19 9 19 -4 0 -1 8 6 18 7 9 9 14 5 10 -5 -4 -15 -3 -22 3 -8 7 -14 6
-19 -2 -4 -6 -2 -15 5 -19 8 -5 8 -10 2 -14 -17 -11 -23 26 -7 50 9 14 22 21
34 19 13 -2 18 1 16 13 -2 9 -4 18 -5 20 -2 1 -3 6 -4 11 -3 25 -18 15 -85
-56z m76 60 c-4 -3 -2 -12 4 -20 6 -7 9 -14 5 -14 -3 -1 -9 -2 -13 -3 -23 -4
-49 -34 -49 -56 0 -31 15 -43 36 -27 13 10 13 10 2 -5 -8 -9 -19 -15 -27 -12
-7 3 -16 1 -19 -5 -4 -6 -14 -7 -24 -4 -15 6 -15 5 -3 -10 7 -9 18 -14 25 -10
6 4 5 -1 -3 -10 -7 -9 -17 -14 -22 -11 -5 3 -9 -1 -9 -8 0 -10 -2 -11 -8 0 -6
9 -11 6 -19 -11 -9 -18 -8 -28 0 -37 9 -10 9 -11 0 -6 -8 4 -13 2 -13 -5 0 -7
-7 -4 -15 7 -11 13 -13 14 -9 3 3 -10 -2 -19 -13 -24 -21 -9 -85 -14 -77 -6 3
3 11 6 17 6 7 0 12 8 12 18 0 22 31 42 40 27 7 -12 25 -4 25 11 0 6 -4 8 -9 4
-23 -14 -18 16 5 34 15 12 24 21 20 21 -10 0 27 46 37 48 5 0 18 14 29 29 28
37 70 83 77 83 2 0 1 -3 -2 -7z m-184 -328 c-7 -21 -12 -19 -10 4 0 11 5 18 9
15 4 -3 5 -11 1 -19z m-147 -83 c-3 -5 2 -19 10 -31 13 -19 18 -20 32 -9 9 7
2 -5 -16 -27 -20 -25 -28 -43 -22 -49 12 -12 -17 -47 -34 -40 -7 3 -13 -2 -13
-11 0 -10 6 -14 16 -10 18 7 11 -1 -33 -33 -16 -12 -24 -22 -18 -22 18 0 21
-28 4 -42 -8 -7 -13 -8 -9 -2 6 11 -20 42 -31 36 -3 -1 -7 4 -8 13 -1 8 2 15
7 15 5 0 9 -5 9 -11 0 -5 4 -8 10 -4 5 3 7 12 4 20 -4 8 -11 12 -18 8 -7 -4
-7 -1 1 9 7 8 9 19 5 23 -4 5 -1 5 6 1 11 -6 17 5 13 27 0 4 4 7 10 7 5 0 8 4
4 9 -3 5 -1 12 5 16 6 4 8 10 6 14 -3 4 10 7 29 6 20 -2 36 3 39 10 6 17 -30
51 -37 35 -3 -6 -4 -5 -2 2 1 7 8 12 15 10 7 -2 10 3 7 12 -3 8 -3 17 0 20 9
9 15 7 9 -2z m-157 -478 c-6 -8 -14 -12 -17 -9 -3 3 -11 0 -18 -6 -8 -7 -14
-6 -19 2 -8 12 14 31 26 23 4 -2 10 0 14 6 4 6 11 8 16 4 6 -4 6 -11 -2 -20z
m-33 -89 c-10 -15 -12 -25 -5 -27 7 -2 4 -10 -7 -18 -12 -10 -15 -11 -10 -2 9
14 -12 45 -24 37 -5 -3 -7 3 -5 12 1 10 9 17 18 15 8 -1 18 2 22 8 3 6 11 8
16 4 6 -4 4 -15 -5 -29z m-35 -118 c-13 -13 -26 -3 -16 12 3 6 11 8 17 5 6 -4
6 -10 -1 -17z m-37 -82 c3 -9 12 -12 23 -8 15 5 15 3 -2 -10 -11 -8 -17 -19
-13 -23 4 -4 3 -13 -3 -21 -7 -8 -8 -18 -2 -25 11 -15 11 -78 0 -95 -5 -7 -5
-18 -2 -23 3 -6 0 -13 -9 -16 -8 -3 -13 -14 -11 -25 2 -10 0 -21 -5 -24 -5 -3
-7 -12 -4 -20 4 -8 9 -13 13 -10 4 2 6 -6 5 -18 -1 -12 -3 -22 -4 -22 -2 0 -4
-10 -5 -22 -1 -13 3 -23 9 -23 6 0 4 -4 -4 -9 -20 -13 -34 -2 -19 15 6 8 7 14
2 14 -5 0 -9 11 -9 24 0 14 4 22 8 20 4 -3 8 0 8 5 0 6 -4 11 -8 11 -10 0 -9
106 1 116 4 4 1 14 -6 22 -6 9 -7 13 -2 10 7 -4 12 15 13 55 2 92 5 117 13
117 4 0 9 -7 13 -15z m6 -452 c0 -1 -8 -7 -18 -12 -13 -7 -19 -6 -19 2 0 7 9
13 19 13 10 0 18 -1 18 -3z m-6 -80 c-2 -47 -2 -46 -14 -38 -8 5 -7 11 1 21 9
11 8 14 -2 14 -12 0 -12 2 0 9 9 6 10 11 2 15 -6 4 -9 12 -5 17 11 18 20 -1
18 -38z m21 -124 c-3 -4 -1 -11 5 -14 8 -5 7 -11 -1 -21 -8 -10 -8 -14 0 -14
6 0 11 -4 11 -8 0 -5 -6 -9 -14 -9 -7 0 -13 7 -11 16 1 9 -2 22 -8 29 -5 6 -6
12 -2 12 4 0 1 8 -6 17 -12 14 -12 16 0 8 11 -6 13 -4 8 11 -7 19 -7 19 8 0 8
-10 12 -22 10 -27z m23 -119 c7 -11 11 -20 9 -20 -2 0 -12 9 -22 20 -10 11
-14 20 -9 20 5 0 15 -9 22 -20z m17 -72 c-2 -18 2 -39 8 -47 14 -17 18 -43 5
-35 -5 3 -7 9 -4 12 3 3 -1 14 -11 24 -9 10 -13 21 -10 25 4 3 2 13 -5 20 -9
11 -9 17 3 24 8 5 15 9 15 9 1 0 0 -15 -1 -32z m32 -113 c0 -8 -4 -12 -9 -9
-5 3 -6 10 -3 15 9 13 12 11 12 -6z m18 -43 c-3 -3 -11 0 -18 7 -9 10 -8 11 6
5 10 -3 15 -9 12 -12z"/>
<path d="M614 3418 c-19 -23 -19 -23 2 -5 11 9 24 14 29 10 4 -5 5 -2 1 5 -9
16 -10 16 -32 -10z"/>
<path d="M570 3360 c-6 -12 -16 -18 -23 -14 -7 4 -9 4 -5 -1 4 -4 0 -14 -10
-21 -9 -7 -18 -17 -18 -23 -1 -6 -2 -16 -3 -22 0 -5 -5 -8 -10 -5 -5 3 -15 -1
-22 -10 -10 -12 -10 -15 2 -12 8 2 14 -5 14 -14 0 -22 11 -33 13 -13 1 8 3 22
4 30 1 15 8 18 41 18 16 0 16 2 4 16 -19 21 -11 47 9 30 16 -13 16 -14 18 29
2 38 0 39 -14 12z m7 -25 c0 -8 -4 -12 -9 -9 -5 3 -6 10 -3 15 9 13 12 11 12
-6z m-40 -22 c-4 -3 -2 -11 3 -18 7 -8 5 -12 -4 -12 -8 0 -12 7 -11 16 5 22 4
21 12 21 3 0 3 -3 0 -7z"/>
<path d="M440 3220 c-12 -8 -12 -10 -1 -10 10 0 11 -3 2 -14 -10 -11 -9 -14 4
-12 8 1 20 7 26 13 15 15 -12 35 -31 23z m25 -9 c3 -5 2 -12 -3 -15 -5 -3 -9
1 -9 9 0 17 3 19 12 6z"/>
<path d="M310 3006 c0 -2 8 -10 18 -17 15 -13 16 -12 3 4 -13 16 -21 21 -21
13z"/>
<path d="M260 2935 c-7 -8 -9 -15 -5 -15 4 0 -2 -15 -13 -34 -12 -21 -17 -38
-11 -47 11 -19 34 4 34 34 0 14 6 22 17 22 33 0 41 21 14 38 -21 14 -26 14
-36 2z m43 -20 c4 3 5 2 2 -2 -3 -4 -14 -7 -24 -8 -17 -1 -18 3 -11 35 0 3 7
-3 14 -12 7 -10 16 -16 19 -13z m-48 -52 c-2 -10 -4 -19 -4 -21 -1 -2 -6 0
-11 3 -8 5 -7 11 1 21 15 18 18 18 14 -3z"/>
<path d="M220 2806 c0 -2 8 -10 18 -17 15 -13 16 -12 3 4 -13 16 -21 21 -21
13z"/>
<path d="M114 2485 c-5 -13 -9 -13 -23 -3 -14 12 -15 11 -2 -4 17 -22 18 -22
31 2 6 11 8 20 5 20 -3 0 -8 -7 -11 -15z"/>
<path d="M42 2258 c0 -7 -3 -24 -6 -36 -4 -19 -2 -21 8 -13 7 6 12 20 11 31
-1 23 -11 36 -13 18z"/>
<path d="M40 2181 c9 -7 10 -11 3 -11 -6 0 -11 -9 -10 -20 1 -11 6 -20 13 -20
16 0 11 53 -6 58 -13 3 -12 2 0 -7z"/>
<path d="M35 2110 c-3 -5 -4 -10 -1 -10 3 0 1 -11 -4 -25 -7 -19 -6 -23 5 -18
8 3 12 9 9 14 -3 6 -1 16 6 24 7 8 7 15 1 19 -5 4 -12 2 -16 -4z"/>
<path d="M3596 3172 c-4 -7 -2 -12 4 -12 6 0 9 -4 5 -9 -3 -6 4 -15 15 -21 11
-6 19 -14 17 -18 -2 -8 6 -12 25 -12 6 0 1 8 -10 19 -12 10 -19 21 -15 25 3 3
1 6 -6 6 -7 0 -9 5 -5 12 4 6 3 8 -4 4 -5 -3 -12 -1 -14 6 -3 9 -6 9 -12 0z"/>
<path d="M385 3100 c-3 -6 1 -7 9 -4 18 7 21 14 7 14 -6 0 -13 -4 -16 -10z"/>
<path d="M370 3055 c-7 -8 -17 -12 -23 -8 -6 3 -7 1 -3 -5 10 -17 19 -15 34 8
14 23 10 26 -8 5z"/>
<path d="M180 2735 c-6 -8 -9 -19 -6 -24 4 -5 -2 -14 -11 -20 -10 -6 -13 -10
-8 -11 21 0 39 20 41 44 1 30 0 31 -16 11z"/>
<path d="M3886 2508 c3 -5 10 -6 15 -3 13 9 11 12 -6 12 -8 0 -12 -4 -9 -9z"/>
<path d="M3890 2484 c0 -6 7 -17 15 -24 8 -7 12 -16 9 -21 -3 -5 0 -9 7 -9 8
0 9 -4 0 -13 -13 -17 -7 -54 15 -78 11 -12 14 -24 9 -36 -10 -23 -13 -203 -3
-197 4 2 6 -5 5 -16 -1 -11 -4 -20 -7 -20 -3 0 -6 -11 -6 -24 0 -21 3 -23 19
-15 13 8 15 14 8 23 -6 7 -7 16 -3 20 10 11 9 30 -3 38 -6 5 -4 8 4 8 11 0 11
3 -3 13 -16 12 -16 13 1 13 17 0 19 -8 18 -68 -1 -36 2 -65 5 -63 3 2 6 -7 6
-20 0 -13 -4 -21 -10 -18 -5 4 -6 1 -1 -7 6 -9 4 -11 -5 -5 -7 4 -16 2 -21 -6
-11 -16 -5 34 6 51 3 5 0 7 -8 5 -14 -6 -17 -52 -4 -72 5 -8 4 -13 -2 -13 -6
0 -10 -3 -10 -7 1 -5 0 -10 -1 -13 -1 -3 -3 -25 -4 -50 -1 -25 -5 -51 -9 -57
-5 -7 -4 -13 2 -13 5 0 12 6 14 13 4 9 6 9 6 -1 1 -7 -6 -15 -15 -19 -13 -5
-13 -7 -2 -14 11 -7 10 -11 -2 -19 -17 -11 -20 -30 -8 -46 5 -7 2 -17 -7 -24
-8 -7 -13 -23 -11 -36 3 -15 -1 -27 -12 -33 -9 -5 -13 -13 -9 -17 5 -5 12 -2
17 6 9 13 10 13 10 0 0 -12 2 -13 9 -1 7 11 9 11 13 0 3 -9 6 -8 11 5 5 11 3
15 -5 10 -7 -5 -8 -3 -4 5 5 7 11 9 15 6 11 -11 7 -30 -9 -42 -8 -6 -15 -17
-15 -24 0 -7 -7 -14 -15 -16 -12 -4 -12 -3 -1 5 9 7 10 12 2 16 -6 4 -9 12 -6
17 4 5 -2 6 -11 2 -11 -4 -13 -8 -6 -11 7 -2 12 -8 12 -13 0 -6 -6 -7 -12 -3
-7 4 -10 4 -6 -1 4 -4 2 -15 -4 -23 -7 -8 -13 -20 -15 -28 -2 -8 -4 -20 -6
-28 -2 -8 -8 -20 -13 -27 -6 -8 -10 -29 -9 -47 1 -18 -2 -35 -7 -38 -4 -3 -6
-9 -3 -14 3 -5 -4 -14 -15 -20 -17 -9 -19 -14 -10 -25 9 -11 7 -16 -10 -25
-11 -6 -18 -15 -15 -20 3 -4 0 -10 -7 -12 -7 -3 -5 -7 6 -11 11 -5 15 -3 10 5
-4 7 -3 8 5 4 9 -6 9 -11 0 -22 -14 -17 2 -19 19 -2 10 10 8 16 -10 30 -13 10
-18 18 -11 18 6 0 15 -5 18 -10 5 -8 12 -7 23 2 9 8 13 8 9 1 -5 -7 0 -9 13
-6 17 5 21 13 20 38 -1 3 6 12 14 20 8 8 13 23 11 32 -2 10 -4 22 -4 26 -1 5
-6 5 -12 2 -6 -4 -8 -14 -5 -22 4 -9 2 -12 -7 -7 -7 5 -5 0 3 -11 15 -18 14
-18 -12 -1 -31 20 -36 29 -13 20 11 -4 14 1 12 23 -1 15 -6 31 -12 36 -5 4 6
5 25 2 31 -4 33 -3 18 9 -10 7 -18 16 -18 19 0 3 8 4 18 3 19 -3 23 -22 10
-48 -4 -9 -4 -19 1 -22 8 -5 22 44 20 68 0 5 5 13 13 17 10 7 10 9 -2 9 -12 1
-12 3 2 13 9 8 15 22 14 33 -2 10 1 24 6 31 5 7 7 17 4 22 -4 5 -2 12 4 16 6
4 9 22 7 41 -3 19 -1 34 3 34 15 0 34 209 32 355 -1 92 -8 220 -12 220 -1 0
-3 20 -4 44 -1 25 -7 46 -14 49 -7 2 -12 8 -12 13 0 6 4 8 9 5 10 -6 9 12 0
29 -4 6 -5 18 -4 27 2 12 -2 15 -13 10 -15 -5 -16 -4 -2 13 9 11 10 16 3 11
-7 -4 -13 -3 -13 1 0 5 6 15 13 22 10 11 8 12 -10 7 -15 -5 -25 -1 -32 11 -6
10 -11 13 -11 7z m53 -87 c7 3 9 3 5 -2 -4 -4 -2 -15 5 -23 9 -13 9 -14 0 -8
-8 4 -13 2 -13 -5 0 -22 -11 -2 -15 27 -2 16 -2 23 1 16 3 -6 11 -9 17 -5z
m16 -123 c-9 -11 -8 -14 2 -14 12 0 12 -2 1 -9 -11 -7 -11 -9 0 -14 9 -3 14
-18 13 -41 -2 -40 -9 -53 -20 -37 -3 6 -1 11 5 11 6 0 8 5 5 10 -4 6 -10 8
-14 6 -4 -3 -6 21 -5 52 2 68 1 65 14 57 8 -5 7 -11 -1 -21z m24 -338 c-3 -12
-6 -55 -8 -96 -2 -41 -6 -86 -10 -100 -4 -14 -8 -35 -9 -47 -1 -12 -5 -25 -8
-28 -4 -4 -4 -14 -2 -23 5 -14 4 -14 -6 1 -6 9 -16 17 -23 17 -7 0 -6 -4 3
-10 13 -8 13 -11 -1 -25 -15 -15 -16 -14 -15 10 1 14 8 30 15 34 18 11 18 15
1 36 -9 11 -10 16 -2 11 6 -4 12 -2 12 3 0 6 -5 11 -12 11 -6 0 -3 6 8 14 10
8 16 18 12 22 -4 4 -3 13 3 21 7 8 8 18 2 26 -13 17 -10 77 5 105 7 12 10 22
7 22 -4 0 -4 4 -1 8 11 18 34 9 29 -12z m-51 -389 c-7 -8 -8 -18 -4 -22 4 -5
1 -5 -5 -1 -7 4 -13 2 -13 -3 0 -6 6 -11 13 -11 6 0 4 -5 -6 -11 -11 -7 -16
-18 -13 -35 4 -19 2 -23 -7 -17 -19 14 -42 9 -41 -9 1 -10 -4 -14 -13 -11 -12
5 -12 8 2 23 8 9 12 20 8 25 -5 4 -2 5 5 1 8 -5 11 0 8 16 -4 28 10 49 29 42
8 -3 20 3 27 15 7 11 14 18 17 16 2 -3 -1 -11 -7 -18z m-77 -244 c-2 -10 -4
-22 -4 -27 -1 -4 -8 -6 -16 -3 -8 4 -17 2 -20 -4 -4 -5 -11 -7 -16 -3 -6 3 -5
12 3 22 11 12 11 16 0 20 -10 3 -8 7 5 17 22 17 53 2 48 -22z"/>
<path d="M3963 1945 c4 -5 0 -19 -8 -31 -8 -13 -11 -25 -6 -29 5 -3 12 -1 16
5 3 5 4 10 0 10 -3 0 -1 9 5 19 7 15 7 22 -2 27 -7 4 -10 3 -5 -1z"/>
<path d="M3945 1843 c0 -15 7 -28 15 -31 13 -3 12 -2 0 7 -9 7 -10 11 -3 11 6
0 11 9 10 20 -2 30 -24 24 -22 -7z"/>
<path d="M3951 1787 c-6 -8 -8 -17 -5 -20 3 -3 2 -11 -2 -19 -9 -14 -13 -91
-5 -82 3 3 6 15 7 27 1 12 5 32 8 45 17 66 17 72 -3 49z"/>
<path d="M3879 1529 c-7 -25 -2 -66 8 -66 7 0 10 4 7 9 -3 5 -1 15 5 22 8 10
7 17 -4 26 -8 7 -15 11 -16 9z m16 -18 c3 -5 2 -12 -3 -15 -5 -3 -9 1 -9 9 0
17 3 19 12 6z"/>
<path d="M3816 1322 c-4 -7 -2 -12 5 -12 7 0 5 -8 -7 -22 -11 -13 -13 -18 -4
-12 8 5 19 9 24 9 5 0 10 8 12 18 1 9 -1 15 -6 12 -5 -3 -10 0 -12 7 -3 9 -6
9 -12 0z"/>
<path d="M66 2393 c-6 -14 -5 -15 5 -6 7 7 10 15 7 18 -3 3 -9 -2 -12 -12z"/>
<path d="M59 2338 c-5 -18 -6 -38 -1 -34 7 8 12 36 6 36 -2 0 -4 -1 -5 -2z"/>
<path d="M3956 1995 c-3 -8 -1 -15 4 -15 13 0 22 18 11 24 -5 3 -11 -1 -15 -9z"/>
<path d="M3859 1408 c0 -2 -2 -11 -4 -21 -3 -15 -1 -16 11 -6 7 6 11 15 8 20
-5 9 -13 12 -15 7z"/>
<path d="M3813 1240 c1 -3 -5 -15 -13 -27 -13 -18 -18 -19 -33 -8 -14 10 -15
14 -5 18 7 3 8 6 2 6 -6 1 -19 -8 -29 -19 -10 -11 -15 -20 -11 -20 3 0 -1 -11
-10 -24 -8 -14 -15 -27 -15 -30 3 -19 0 -26 -9 -21 -6 4 -7 -1 -3 -11 5 -13 3
-15 -8 -9 -8 4 -11 5 -7 0 4 -4 3 -14 -3 -21 -6 -7 -6 -14 -1 -18 12 -7 32 16
37 44 2 13 7 25 11 29 4 3 4 -3 1 -14 -7 -20 -7 -20 8 -1 10 13 12 23 5 30 -5
5 -10 14 -10 20 0 5 7 1 16 -10 8 -10 12 -13 8 -5 -5 10 -3 12 7 7 8 -4 6 -1
-4 7 -12 10 -15 17 -7 22 6 4 18 1 27 -7 14 -11 15 -11 9 0 -7 11 -4 11 12 1
12 -7 18 -17 15 -22 -3 -5 -9 -4 -13 3 -6 9 -10 9 -16 -1 -9 -14 -10 -19 -13
-41 -1 -9 -4 -9 -12 2 -9 13 -10 13 -7 0 1 -8 -4 -26 -11 -39 -10 -18 -10 -22
0 -16 8 6 10 4 4 -5 -6 -9 -4 -11 6 -5 8 5 10 4 6 0 -11 -13 -38 -15 -31 -3 4
7 2 8 -5 4 -6 -4 -9 -12 -6 -17 4 -5 1 -9 -4 -9 -6 0 -11 5 -11 12 0 6 -3 8
-6 5 -4 -3 -16 -2 -27 4 -11 7 -17 7 -13 1 3 -5 -1 -15 -9 -22 -7 -6 -12 -17
-9 -25 3 -7 -4 -20 -16 -28 -19 -13 -20 -15 -3 -21 17 -7 17 -8 -1 -21 -10 -8
-23 -12 -28 -9 -5 3 -7 1 -6 -4 2 -5 -17 -28 -42 -51 -25 -23 -40 -42 -35 -40
31 5 38 -1 20 -21 -10 -11 -21 -17 -26 -15 -4 3 -10 1 -14 -5 -4 -6 -10 -8
-14 -6 -4 3 -8 -1 -8 -9 0 -8 4 -12 9 -9 4 3 8 -1 8 -8 0 -7 9 -2 20 12 11 14
20 19 20 11 0 -8 6 -11 16 -7 10 4 13 2 8 -6 -5 -7 -3 -8 6 -3 8 5 11 4 6 -3
-4 -6 -14 -8 -24 -5 -15 6 -15 5 -3 -11 12 -15 12 -17 0 -14 -8 2 -13 -3 -11
-10 1 -8 -2 -11 -9 -6 -7 4 -9 3 -5 -4 4 -7 -1 -10 -14 -7 -14 3 -18 0 -14 -8
4 -7 3 -9 -1 -4 -5 4 -9 17 -10 29 -2 19 -1 19 11 4 6 -10 15 -13 18 -8 3 5
-1 15 -8 22 -11 9 -20 8 -38 -1 -13 -8 -26 -14 -30 -15 -5 -1 -11 -2 -14 -3
-4 0 -1 -8 6 -16 12 -14 5 -20 -22 -16 -4 0 -17 -12 -30 -27 -13 -15 -26 -27
-30 -27 -11 0 -58 -48 -53 -55 5 -8 -24 -24 -37 -22 -10 2 -25 -29 -23 -48 1
-20 -17 -31 -31 -19 -8 6 -17 1 -28 -16 -9 -14 -22 -25 -29 -23 -20 4 -58 -22
-51 -34 5 -7 2 -9 -9 -5 -8 3 -21 -1 -28 -9 -7 -9 -30 -24 -51 -35 -24 -12
-36 -24 -32 -31 5 -7 2 -9 -8 -5 -9 3 -24 -3 -34 -14 -10 -11 -24 -17 -31 -14
-8 2 -11 0 -8 -5 5 -9 -2 -12 -21 -9 -3 0 -16 -7 -30 -15 -13 -9 -24 -13 -24
-10 0 4 -9 -1 -20 -11 -11 -10 -20 -14 -20 -10 0 4 -9 0 -20 -10 -11 -10 -20
-15 -20 -10 0 4 -7 2 -15 -5 -8 -7 -15 -9 -15 -5 0 5 -9 0 -20 -10 -11 -10
-20 -14 -20 -10 0 5 -5 4 -11 -2 -6 -6 -19 -9 -28 -6 -9 4 -5 -3 9 -14 18 -15
29 -18 37 -11 7 6 10 15 6 21 -4 6 -1 7 7 2 9 -6 11 -4 5 5 -6 9 -4 11 5 5 7
-4 16 -2 21 6 7 12 9 11 9 -1 0 -10 3 -11 8 -4 5 8 14 3 27 -15 15 -20 15 -23
2 -12 -16 12 -22 8 -18 -12 1 -5 -4 -5 -10 -1 -7 4 -9 3 -6 -3 3 -5 -7 -9 -23
-9 -16 0 -26 4 -23 9 3 6 1 7 -6 3 -6 -4 -9 -12 -6 -17 4 -5 1 -9 -4 -9 -6 0
-11 5 -11 11 0 5 -4 8 -10 4 -5 -3 -7 -13 -4 -23 5 -13 4 -14 -4 -3 -8 11 -10
11 -15 0 -3 -8 -4 -4 -4 8 1 12 5 19 11 16 5 -4 6 -1 1 7 -6 9 -4 11 6 5 12
-7 12 -5 1 6 -8 9 -15 10 -20 4 -10 -15 -32 -17 -47 -5 -9 8 -15 8 -20 0 -3
-6 -10 -8 -15 -5 -11 7 -23 -12 -15 -25 4 -7 13 -7 25 0 16 8 18 8 14 -4 -3
-9 -11 -14 -17 -13 -7 1 -11 -4 -9 -11 1 -8 -2 -11 -8 -7 -6 4 -9 3 -8 -2 2
-4 -1 -10 -7 -11 -5 -2 -19 -8 -30 -14 l-20 -9 20 17 c14 11 15 15 4 11 -9 -3
-16 0 -16 8 0 7 6 11 12 9 7 -3 17 1 24 9 20 24 -25 28 -54 5 -17 -13 -30 -17
-38 -11 -17 13 -43 10 -39 -5 3 -15 -4 -15 -29 -2 -12 7 -19 7 -19 1 0 -6 -6
-8 -14 -5 -8 3 -19 -3 -25 -13 -8 -16 -6 -19 14 -19 13 0 23 5 22 10 -3 13 24
15 40 3 7 -5 10 -13 7 -19 -3 -5 -12 -4 -20 3 -8 7 -14 7 -14 1 0 -5 -7 -13
-16 -16 -10 -4 -13 -2 -9 7 4 6 -1 3 -9 -7 -9 -11 -16 -14 -16 -8 0 9 -5 10
-18 3 -12 -6 -23 -5 -37 6 -17 13 -17 15 -2 9 12 -4 16 -2 11 6 -5 7 -3 8 6 3
9 -5 11 -4 6 3 -5 8 -2 10 8 6 9 -3 16 -2 16 3 0 5 -11 9 -24 9 -14 0 -23 -3
-20 -7 2 -4 -19 -6 -47 -5 -27 2 -52 -1 -55 -6 -3 -5 -9 -6 -14 -3 -5 3 -11 1
-15 -5 -3 -5 -11 -10 -16 -10 -6 0 -8 4 -5 8 7 12 -133 7 -145 -5 -12 -12 -42
-6 -34 7 9 15 -24 4 -45 -15 -19 -17 -25 -13 -22 16 1 8 -106 5 -114 -4 -13
-13 -26 -7 -20 8 3 8 2 14 -2 14 -4 -1 -9 0 -12 1 -5 2 -33 6 -90 14 -14 2
-25 4 -25 5 0 2 -8 4 -18 6 -17 3 -17 2 -4 -13 8 -9 12 -23 10 -31 -4 -9 0
-11 15 -7 11 4 23 2 27 -4 3 -6 10 -8 15 -5 5 3 19 1 31 -6 15 -8 19 -8 15 0
-4 6 -1 11 6 11 10 0 9 3 -2 11 -13 9 -13 10 0 6 8 -2 14 -11 12 -19 -1 -11 5
-16 20 -16 13 0 32 -2 43 -5 11 -2 30 3 42 11 15 9 23 10 23 3 0 -6 -7 -11
-15 -11 -8 0 -15 -4 -15 -10 0 -13 17 -13 26 1 4 8 9 7 15 -2 6 -11 11 -11 20
-2 10 10 15 9 25 -5 10 -12 13 -13 14 -3 0 11 3 11 17 0 11 -10 14 -10 9 -1
-9 15 6 16 22 0 9 -9 12 -9 12 0 0 7 5 12 11 12 5 0 8 -4 5 -8 -2 -4 35 -7 82
-6 48 1 87 3 87 4 0 1 32 4 70 6 39 2 86 5 105 8 19 2 39 5 43 5 5 1 5 6 2 11
-3 6 -1 10 4 10 6 0 11 -6 11 -12 0 -9 4 -8 10 2 8 12 10 12 10 1 0 -9 4 -10
13 -4 6 6 22 9 34 8 12 -1 20 2 17 6 -2 4 0 10 6 14 5 3 10 1 10 -5 0 -6 10
-8 23 -5 13 4 32 8 43 10 10 2 21 4 24 5 3 1 8 2 13 1 4 0 7 3 7 9 0 6 3 9 8
9 17 -3 32 2 32 10 0 10 -26 9 -36 -2 -4 -4 -12 -7 -18 -7 -6 0 -2 7 8 15 10
8 23 12 27 9 5 -3 9 0 9 6 0 7 -7 9 -16 6 -8 -3 -12 -2 -9 4 11 17 24 11 39
-18 8 -15 15 -22 16 -15 0 6 9 10 20 8 12 -2 18 0 14 6 -3 6 0 9 7 8 8 -1 22
1 32 4 45 18 53 20 66 23 8 1 18 9 22 16 5 7 9 10 9 5 0 -4 13 -1 30 8 16 8
32 14 35 13 2 -2 13 5 25 14 11 10 20 15 20 12 0 -4 7 -1 15 6 8 7 15 9 15 4
0 -5 7 -1 15 10 8 10 19 15 26 10 8 -5 10 -3 4 6 -6 10 -4 12 7 7 9 -3 23 2
33 13 10 11 21 18 25 15 3 -2 18 7 33 21 14 13 31 24 37 24 5 0 10 5 10 11 0
5 4 8 9 5 5 -3 14 0 20 8 9 10 7 19 -9 37 -10 13 -19 19 -20 14 0 -6 5 -16 11
-22 8 -8 7 -13 -2 -18 -7 -5 -10 -4 -6 1 3 6 -4 11 -16 11 -12 1 -17 -1 -12
-5 14 -10 17 -32 5 -32 -6 0 -10 7 -10 16 0 8 -4 13 -9 9 -6 -3 -8 -15 -6 -27
3 -11 2 -18 -2 -14 -3 3 -12 1 -20 -5 -7 -6 -13 -8 -13 -4 0 4 8 14 18 21 9 7
12 14 5 14 -6 0 -18 -9 -26 -21 -8 -11 -17 -17 -19 -12 -3 4 -3 2 -1 -5 1 -8
-2 -10 -9 -6 -6 4 -8 3 -4 -4 3 -6 2 -13 -4 -17 -6 -4 -7 -11 -4 -17 4 -7 2
-8 -5 -4 -6 4 -9 12 -6 17 4 5 2 9 -3 9 -6 0 -13 -7 -16 -16 -5 -12 -10 -14
-20 -5 -7 6 -16 8 -19 4 -4 -3 -7 -1 -7 5 0 7 7 12 16 12 13 0 14 3 5 14 -10
11 -9 14 3 12 9 -1 19 -5 22 -9 15 -15 26 -6 13 11 -13 15 -12 16 4 3 10 -8
17 -9 17 -3 0 6 -7 15 -16 20 -15 8 -15 10 0 15 12 5 15 3 11 -6 -4 -6 0 -4 7
5 13 15 15 15 26 0 11 -16 11 -16 6 1 -4 9 -1 17 6 17 6 0 8 4 5 10 -3 5 0 7
8 4 8 -3 18 -1 21 5 4 6 13 8 21 4 18 -6 20 8 3 25 -9 9 -9 12 0 12 7 0 12 -4
12 -9 0 -5 8 -8 18 -6 9 2 19 4 21 4 3 1 -4 8 -15 17 -19 15 -19 15 1 6 20
-10 27 -12 43 -12 5 0 9 -7 9 -15 0 -8 -4 -12 -8 -10 -4 3 -9 -2 -13 -10 -3
-8 0 -17 6 -21 7 -5 8 -3 4 5 -5 8 -3 11 6 9 16 -4 68 35 68 51 0 6 3 10 8 10
17 -3 32 2 32 10 0 6 -9 8 -20 6 -12 -2 -18 0 -15 6 4 5 10 7 15 4 4 -3 10 2
14 10 3 8 11 15 18 15 9 0 9 -3 -2 -10 -8 -5 -11 -12 -7 -17 9 -9 28 17 21 29
-3 4 0 8 5 8 6 0 11 -6 11 -12 1 -7 7 -2 15 12 8 14 14 21 15 16 0 -5 18 9 40
32 37 37 39 43 29 66 -7 14 -16 23 -21 20 -5 -3 -2 -14 7 -23 14 -17 14 -18
-9 -17 -14 1 -29 6 -33 10 -4 5 -3 6 4 2 8 -4 11 0 8 14 -3 13 0 18 7 14 6 -4
8 -3 5 3 -3 5 0 10 8 11 8 1 21 3 29 4 8 1 13 9 11 20 -2 10 0 16 6 13 5 -4 7
-11 4 -16 -4 -5 -1 -9 5 -9 7 0 9 7 6 16 -3 8 -2 12 4 9 14 -9 12 -20 -7 -42
-10 -10 -15 -14 -11 -8 5 7 2 12 -7 12 -19 0 -19 -21 -1 -37 12 -9 20 -4 44
29 16 22 33 37 37 33 5 -4 5 -1 1 6 -4 6 -3 12 2 12 5 0 15 11 22 25 7 13 18
21 24 18 6 -3 8 -3 4 2 -4 4 0 14 10 21 9 7 17 16 17 21 0 5 14 24 32 43 18
19 29 39 25 48 -3 10 -1 13 6 8 7 -4 12 -5 12 -2 0 3 -9 10 -19 15 -16 9 -18
8 -14 -12 4 -18 3 -19 -6 -7 -9 12 -11 13 -11 1 0 -8 -3 -12 -6 -9 -3 4 0 17
7 30 7 12 12 27 11 31 -1 4 5 10 14 14 13 5 13 8 2 15 -10 7 -8 8 5 4 11 -4
16 -2 11 5 -3 6 3 5 14 -2 26 -16 19 -23 -30 -28 -11 -1 -5 -24 7 -33 19 -14
28 -8 14 9 -12 15 -12 16 3 11 11 -5 24 5 42 32 27 42 32 60 16 60 -5 0 -7 -6
-4 -14 3 -8 1 -17 -5 -21 -7 -3 -8 0 -5 9 3 9 1 16 -5 16 -6 0 -10 -3 -10 -7
3 -19 -2 -33 -12 -33 -5 0 -8 4 -5 9 7 10 -18 34 -27 25 -3 -3 -4 1 -3 10 1 8
6 19 11 23 4 4 5 3 1 -4 -3 -6 -2 -14 4 -18 5 -3 10 -2 10 2 0 5 16 9 36 10
34 1 58 18 48 34 -2 4 3 10 12 13 8 3 13 10 10 15 -4 5 0 12 6 14 10 4 10 6 1
6 -7 1 -13 6 -13 12 0 6 7 8 16 5 8 -3 13 -2 10 3 -3 5 1 14 9 21 8 7 13 16
10 20 -3 5 -1 12 5 15 8 5 7 12 -2 23 -11 13 -11 15 4 10 10 -4 19 -1 22 8 9
22 8 23 -13 21 -11 0 -19 -4 -18 -7z m1 -39 c3 -5 -1 -11 -9 -14 -9 -4 -12 -1
-8 9 6 16 10 17 17 5z m-47 -106 c0 -8 -4 -12 -9 -9 -4 3 -8 0 -8 -7 0 -7 -3
-9 -6 -6 -4 4 -1 13 6 22 15 19 17 19 17 0z m-101 -107 c4 -7 4 -10 -1 -6 -11
11 -47 -11 -39 -24 5 -7 2 -8 -6 -3 -10 6 -8 12 9 27 27 21 28 21 37 6z m-56
-71 c-9 -7 -15 -21 -15 -32 0 -15 6 -20 25 -19 23 2 22 -1 -15 -35 -22 -19
-39 -41 -37 -48 3 -14 -10 -17 -22 -5 -4 4 -12 8 -17 8 -5 1 -12 2 -16 3 -3 0
2 10 11 20 16 18 16 20 1 29 -16 8 -16 10 1 17 11 4 25 9 33 9 8 1 15 7 17 14
1 7 0 8 -3 2 -2 -5 -9 -7 -14 -4 -6 3 4 17 22 30 33 24 57 34 29 11z m-162
-199 c-5 -15 -36 -19 -45 -6 -3 6 -1 8 5 4 6 -3 13 -2 17 4 9 14 28 13 23 -2z
m32 -38 c-6 -11 -13 -20 -16 -20 -2 0 0 9 6 20 6 11 13 20 16 20 2 0 0 -9 -6
-20z m-74 -5 c-10 -8 -22 -12 -26 -10 -4 3 -13 -2 -20 -10 -7 -8 -9 -15 -5
-15 4 0 2 -6 -4 -14 -14 -16 5 -35 32 -31 9 2 17 2 17 1 0 -7 -60 -65 -60 -58
0 4 -7 -2 -15 -12 -8 -11 -15 -14 -15 -7 0 7 -19 -1 -45 -19 -25 -17 -43 -35
-40 -41 4 -5 1 -9 -5 -9 -6 0 -9 -4 -6 -9 3 -4 -6 -18 -19 -31 -24 -23 -24
-23 -20 -2 4 23 -25 48 -40 34 -5 -4 0 5 11 20 15 21 20 23 25 10 4 -11 8 -12
13 -4 3 6 13 9 20 6 10 -4 13 3 11 26 -2 25 0 28 11 19 17 -14 18 2 2 20 -9
10 -9 12 -1 7 6 -3 15 -2 18 4 5 8 11 7 21 -1 12 -10 13 -9 8 5 -3 9 -1 16 5
16 6 0 10 -3 10 -7 -1 -5 -1 -14 0 -22 2 -21 14 -5 17 23 2 20 -1 24 -18 21
-20 -4 -20 -4 -3 15 10 11 22 17 26 14 5 -3 16 2 25 10 8 9 12 16 8 16 -4 0 1
9 11 20 10 11 21 18 24 15 4 -2 13 0 21 6 23 14 27 10 6 -6z m54 -29 c0 -2 -8
-10 -17 -17 -16 -13 -17 -12 -4 4 13 16 21 21 21 13z m-420 -341 c-7 -9 -15
-13 -18 -10 -3 3 -15 -3 -26 -12 -21 -18 -21 -18 -2 4 10 13 22 20 27 18 4 -3
10 -1 14 5 3 5 9 10 12 10 3 0 0 -7 -7 -15z m-140 -10 c-13 -15 -7 -30 11 -30
5 0 9 -3 9 -7 0 -32 0 -33 -9 -20 -7 11 -9 10 -15 -3 -3 -9 -10 -14 -15 -11
-4 3 -16 -3 -26 -14 -14 -16 -20 -17 -27 -8 -6 10 -8 10 -8 -2 0 -10 -5 -7
-16 8 -8 12 -20 20 -25 16 -6 -3 -3 -11 7 -18 14 -11 15 -14 3 -22 -25 -15
-39 -13 -54 9 -10 15 -12 24 -4 34 6 7 15 11 19 8 4 -3 13 2 19 9 7 8 23 13
37 10 15 -3 23 0 22 7 -4 14 30 21 38 8 3 -5 11 -9 17 -9 7 0 6 4 -3 10 -13 8
-12 11 5 24 26 20 31 20 15 1z m-256 -126 c-3 -5 -10 -7 -15 -3 -5 3 -7 10 -3
15 3 5 10 7 15 3 5 -3 7 -10 3 -15z m-100 -17 c3 -5 -1 -9 -9 -9 -8 0 -12 4
-9 9 3 4 7 8 9 8 2 0 6 -4 9 -8z m-79 -32 c3 -5 1 -10 -4 -10 -6 0 -11 5 -11
10 0 6 2 10 4 10 3 0 8 -4 11 -10z m-29 -24 c0 -14 -3 -23 -7 -20 -4 2 -11 -1
-15 -7 -5 -9 -11 -7 -20 5 -11 16 -13 16 -19 -3 -9 -30 -21 -26 -21 8 0 29 9
33 34 17 9 -5 20 -2 30 8 9 9 17 16 17 16 1 0 1 -11 1 -24z m-862 -10 c9 3 16
1 16 -4 0 -6 8 -9 18 -7 11 2 19 -3 19 -11 0 -8 -4 -14 -9 -14 -4 0 -8 5 -8
11 0 8 -4 8 -14 0 -10 -9 -16 -9 -21 -1 -4 6 -14 9 -23 5 -9 -3 -13 -3 -9 1 4
4 1 14 -6 23 -10 14 -10 14 4 3 9 -7 24 -10 33 -6z m716 0 c0 -3 -4 -8 -10
-11 -5 -3 -10 -1 -10 4 0 6 5 11 10 11 6 0 10 -2 10 -4z m-144 -29 c10 -10 26
-9 20 1 -3 5 1 9 9 9 8 0 14 -3 13 -6 -2 -19 3 -31 11 -26 5 3 12 2 15 -3 6
-10 -75 -9 -90 1 -7 4 -16 1 -22 -6 -15 -18 -154 -16 -176 2 -9 7 -16 9 -16 4
0 -8 -52 -10 -79 -4 -2 1 2 8 9 16 11 13 15 13 33 0 14 -10 24 -11 33 -4 6 5
21 12 32 14 16 3 19 0 15 -13 -6 -15 -5 -15 11 -3 23 19 76 22 83 4 4 -11 9
-11 24 3 11 9 19 13 19 9 0 -5 5 -4 11 2 12 12 34 12 45 0z m-392 -10 c-26
-15 -44 -17 -44 -6 0 6 -5 7 -12 3 -6 -4 -9 -3 -5 2 3 5 22 10 43 10 31 1 34
0 18 -9z m46 -7 c6 -11 8 -20 6 -20 -3 0 -10 9 -16 20 -6 11 -8 20 -6 20 3 0
10 -9 16 -20z"/>
<path d="M3575 860 c-4 -6 -13 -9 -21 -6 -17 6 -28 -10 -14 -19 8 -5 5 -14 -7
-28 -10 -12 -14 -19 -9 -15 5 4 15 3 23 -4 8 -6 13 -7 12 -2 -3 14 12 44 21
39 4 -2 16 5 26 18 10 12 15 19 10 15 -5 -4 -15 -3 -22 3 -8 7 -14 7 -19 -1z
m20 -18 c-10 -11 -44 -12 -50 -2 -3 5 0 7 8 4 8 -3 18 0 22 5 3 6 11 9 16 5 6
-3 8 -9 4 -12z"/>
<path d="M3294 598 c-3 -5 -2 -8 3 -7 24 4 35 -2 26 -13 -6 -7 -10 -21 -10
-32 0 -17 2 -17 12 -2 7 8 14 13 17 11 3 -3 13 5 24 17 10 13 15 20 10 16 -5
-4 -16 -3 -23 4 -18 14 -52 18 -59 6z m61 -26 c-3 -3 -12 -7 -21 -8 -11 -2
-12 1 -5 10 6 7 7 17 3 22 -4 4 1 2 11 -5 9 -8 15 -16 12 -19z"/>
<path d="M3249 543 c-1 -5 -2 -15 -3 -23 0 -8 -6 -14 -12 -13 -6 1 -11 -5 -11
-13 0 -12 3 -12 16 0 9 7 24 17 33 22 16 9 16 10 -2 22 -11 7 -21 9 -21 5z"/>
<path d="M3186 461 c-4 -6 -14 -8 -24 -4 -11 3 -9 -1 6 -11 13 -10 19 -22 15
-29 -4 -8 -1 -7 9 1 16 12 18 35 6 47 -3 4 -9 2 -12 -4z m11 -16 c0 -8 -4 -12
-9 -9 -5 3 -6 10 -3 15 9 13 12 11 12 -6z"/>
<path d="M2831 262 c4 -28 -1 -34 -18 -21 -20 17 -17 18 -43 -6 -12 -11 -24
-19 -26 -17 -12 7 -14 0 -4 -17 10 -19 33 -22 47 -6 4 4 3 5 -3 2 -17 -10 -25
19 -10 32 9 7 16 7 24 -1 18 -18 43 -18 59 -2 8 8 18 12 23 9 4 -3 11 2 14 11
3 8 2 12 -4 9 -6 -3 -16 -3 -22 2 -17 10 -38 13 -37 5z m35 -14 c4 -7 4 -10
-1 -6 -4 4 -14 0 -22 -10 -13 -15 -13 -15 -3 6 12 25 16 27 26 10z m-108 -53
c-3 -3 -9 2 -12 12 -6 14 -5 15 5 6 7 -7 10 -15 7 -18z"/>
<path d="M2365 89 c-4 -6 -5 -12 -2 -15 2 -3 7 2 10 11 7 17 1 20 -8 4z"/>
<path d="M2409 83 c-13 -16 -12 -17 4 -4 9 7 17 15 17 17 0 8 -8 3 -21 -13z"/>
<path d="M2104 49 c-3 -5 -9 -7 -14 -4 -4 3 -13 -2 -19 -9 -10 -11 -9 -14 2
-12 8 1 21 7 29 14 8 6 18 9 22 5 12 -12 45 -13 52 -1 4 7 3 8 -4 4 -7 -4 -18
-4 -24 1 -19 11 -37 12 -44 2z"/>
<path d="M1846 42 c-3 -5 1 -9 9 -9 8 0 12 4 9 9 -7 10 -11 10 -18 0z"/>
<path d="M1930 41 c0 -6 4 -13 10 -16 6 -3 7 1 4 9 -7 18 -14 21 -14 7z"/>
<path d="M1970 35 c-6 -7 5 -11 34 -11 33 0 42 4 38 14 -4 11 -6 11 -13 0 -5
-7 -9 -8 -9 -3 0 14 -39 14 -50 0z"/>
<path d="M3710 1080 c-12 -16 -19 -30 -16 -30 2 0 14 14 26 30 12 17 19 30 16
30 -2 0 -14 -13 -26 -30z"/>
<path d="M3675 1011 c-3 -5 -2 -12 3 -15 5 -3 9 1 9 9 0 17 -3 19 -12 6z"/>
<path d="M3491 756 c-8 -10 -9 -16 -1 -21 5 -3 10 -5 11 -3 4 18 7 38 4 38 -1
0 -8 -6 -14 -14z"/>
<path d="M3131 416 c-7 -8 -8 -17 -3 -20 6 -3 13 1 16 10 9 23 2 28 -13 10z"/>
<path d="M3040 369 c-22 -18 -22 -19 -3 -10 12 6 25 16 28 21 9 15 3 12 -25
-11z"/>
<path d="M2986 342 c-3 -5 1 -9 9 -9 8 0 12 4 9 9 -3 4 -7 8 -9 8 -2 0 -6 -4
-9 -8z"/>
<path d="M2933 289 c-2 -23 3 -25 10 -4 4 8 3 16 -1 19 -4 3 -9 -4 -9 -15z"/>
<path d="M1030 280 c0 -5 5 -10 11 -10 5 0 7 5 4 10 -3 6 -8 10 -11 10 -2 0
-4 -4 -4 -10z"/>
<path d="M2673 175 c-11 -8 -13 -14 -5 -19 7 -4 21 1 32 12 16 15 17 19 5 19
-9 0 -23 -6 -32 -12z"/>
<path d="M2481 106 c-9 -11 -9 -16 1 -22 7 -4 10 -4 6 1 -4 4 -3 14 3 22 6 7
9 13 6 13 -2 0 -10 -6 -16 -14z"/>
<path d="M2225 50 c-3 -6 1 -7 9 -4 18 7 21 14 7 14 -6 0 -13 -4 -16 -10z"/>
</g>
</svg>
